<?xml version="1.0" standalone="no"?><!DOCTYPE svg PUBLIC "-//W3C//DTD SVG 1.1//EN" "http://www.w3.org/Graphics/SVG/1.1/DTD/svg11.dtd"><svg t="1618566103875" class="icon" viewBox="0 0 1024 1024" version="1.1" xmlns="http://www.w3.org/2000/svg" p-id="5659" width="32" height="32" xmlns:xlink="http://www.w3.org/1999/xlink"><defs><style type="text/css"></style></defs><path d="M831.6928 894.1056H163.9424c-34.048 0-61.7984-27.6992-61.7984-61.7984v-49.92c0-23.0912 12.6976-44.0832 33.1776-54.784l221.7984-115.8144c-48.4352-42.8544-76.9536-105.216-76.9536-169.728V337.2544c0-119.9616 97.6384-217.6 217.6-217.6s217.6 97.6384 217.6 217.6v104.8576c0 64.9216-28.7744 127.5392-77.7216 170.3936l222.4128 115.1488a61.5936 61.5936 0 0 1 33.3824 54.8864v49.8176c0.0512 33.9968-27.6992 61.7472-61.7472 61.7472zM497.8176 165.7344c-94.5664 0-171.52 76.9536-171.52 171.52v104.8576c0 55.5008 26.5216 109.0048 71.0144 143.1552 9.7792 7.5264 15.0016 19.3536 13.9264 31.5904s-8.2432 23.04-19.1488 28.7232L156.672 768.512a15.616 15.616 0 0 0-8.448 13.9264v49.92c0 8.6528 7.0656 15.7184 15.7184 15.7184h667.7504c8.6528 0 15.7184-7.0656 15.7184-15.7184v-49.8176c0-5.888-3.2256-11.2128-8.4992-13.9264l-236.1344-122.2144c-11.008-5.6832-18.2272-16.4864-19.3024-28.8256s4.1984-24.2176 14.08-31.6928c44.9536-34.1504 71.7824-87.8592 71.7824-143.7184V337.2544c0-94.5664-76.9536-171.52-171.52-171.52z" fill="#888888" p-id="5660"></path></svg>