<?xml version="1.0" standalone="no"?><!DOCTYPE svg PUBLIC "-//W3C//DTD SVG 1.1//EN" "http://www.w3.org/Graphics/SVG/1.1/DTD/svg11.dtd"><svg t="1614778868530" class="icon" viewBox="0 0 1025 1024" version="1.1" xmlns="http://www.w3.org/2000/svg" p-id="1996" width="32.03125" height="32" xmlns:xlink="http://www.w3.org/1999/xlink"><defs><style type="text/css"></style></defs><path d="M188.757333 798.378667a24.576 24.576 0 0 1-15.701333-5.461334 24.917333 24.917333 0 0 1-6.144-31.402666 71.68 71.68 0 0 0-9.216-95.914667 288.085333 288.085333 0 0 1-155.989333-246.101333c0-164.181333 159.744-297.642667 356.352-297.642667s356.352 133.461333 356.352 297.642667S554.666667 716.8 358.058667 716.8A299.349333 299.349333 0 0 0 204.8 792.576a24.917333 24.917333 0 0 1-16.042667 5.802667zM358.058667 170.666667c-168.96 0-307.2 110.933333-307.2 247.466666a238.933333 238.933333 0 0 0 130.730666 202.752 109.568 109.568 0 0 1 47.445334 90.453334 277.162667 277.162667 0 0 1 128-45.397334c168.96 0 307.2-111.274667 307.2-247.808S527.018667 170.666667 358.058667 170.666667z" p-id="1997" fill="#d81e06"></path><path d="M719.189333 245.76a315.050667 315.050667 0 0 1 53.248 173.738667c0 170.666667-142.336 315.392-331.093333 348.501333a396.970667 396.970667 0 0 0 228.010667 69.973333 297.642667 297.642667 0 0 1 152.917333 75.093334 26.624 26.624 0 0 0 16.384 5.802666 24.917333 24.917333 0 0 0 21.845333-36.864 71.338667 71.338667 0 0 1 9.216-96.938666 288.085333 288.085333 0 0 0 155.989334-246.101334c0-148.821333-133.802667-273.066667-306.517334-293.205333zM445.44 273.066667a96.938667 96.938667 0 0 1 32.426667 76.117333 106.837333 106.837333 0 0 1-20.138667 66.218667c-4.778667 5.461333-20.138667 19.797333-46.08 42.325333a77.824 77.824 0 0 0-21.504 26.282667 78.506667 78.506667 0 0 0-8.192 34.133333v7.509333H320.170667v-7.509333a114.688 114.688 0 0 1 10.922666-52.565333 291.498667 291.498667 0 0 1 62.805334-68.266667l6.485333-7.509333a60.074667 60.074667 0 0 0 14.336-38.229334 56.661333 56.661333 0 0 0-15.018667-41.642666 58.026667 58.026667 0 0 0-43.008-15.018667A59.050667 59.050667 0 0 0 307.2 317.44a91.477333 91.477333 0 0 0-13.312 53.248H231.765333a123.904 123.904 0 0 1 34.133334-93.525333 128.682667 128.682667 0 0 1 93.866666-34.133334 121.514667 121.514667 0 0 1 85.674667 30.037334z m-64.512 292.864a39.594667 39.594667 0 0 1 11.946667 29.013333 40.96 40.96 0 0 1-11.946667 29.354667 43.349333 43.349333 0 0 1-30.037333 11.264 39.253333 39.253333 0 0 1-29.013334-11.605334 36.864 36.864 0 0 1-12.288-29.013333 36.181333 36.181333 0 0 1 12.288-29.013333 39.253333 39.253333 0 0 1 29.013334-11.264 41.984 41.984 0 0 1 30.037333 10.24z" p-id="1998" fill="#d81e06"></path></svg>