<?xml version="1.0" standalone="no"?><!DOCTYPE svg PUBLIC "-//W3C//DTD SVG 1.1//EN" "http://www.w3.org/Graphics/SVG/1.1/DTD/svg11.dtd"><svg t="1620786910644" class="icon" viewBox="0 0 1462 1024" version="1.1" xmlns="http://www.w3.org/2000/svg" p-id="864" width="45.6875" height="32" xmlns:xlink="http://www.w3.org/1999/xlink"><defs><style type="text/css"></style></defs><path d="M1135.561218 391.669465l0.794338 2.00586 2.090139 0.528856C1253.344395 423.293366 1337.942387 523.622189 1337.942387 642.633745c0 141.855605-120.010272 257.053498-268.431276 257.053498H392.744033C244.323029 899.687243 124.312757 784.48935 124.312757 642.633745c0-119.268609 84.863473-219.597432 200.036083-248.558091l2.094353-0.526749 0.794338-2.010074C389.058897 235.368296 546.653761 124.312757 731.399374 124.312757c184.745613 0 342.342584 111.184066 404.161844 267.356708z" fill="#FCD6D7" p-id="865"></path><path d="M748.902189 484.550058c-0.002107-9.411951 3.444938-18.526815 9.738535-25.74749 6.29149-7.218568 15.029202-12.085728 24.68135-13.746041a43.292444 43.292444 0 0 1 28.119967 4.658568c8.51437 4.67121 15.046058 12.068872 18.450963 20.895078a38.604379 38.604379 0 0 1 0.181202 27.390946c-3.289021 8.868346-9.721679 16.343967-18.17284 21.11842s-18.381432 6.544329-28.056757 5.002008c-9.673218-1.544428-18.47414-6.304132-24.860444-13.44474l-112.31763 50.068543a38.583309 38.583309 0 0 1 0 24.135638l112.31763 50.068543c6.750815-7.536724 16.177514-12.399671 26.451226-13.647012 10.273712-1.245235 20.665416 1.21363 29.158716 6.902518 8.491193 5.686782 14.48349 14.199045 16.809613 23.884905 2.32823 9.68586 0.825942 19.856329-4.213992 28.53926-5.039934 8.685037-13.259325 15.263078-23.063177 18.461498a43.425185 43.425185 0 0 1-30.007835-1.148313c-9.508872-3.937975-17.15516-11.122831-21.459753-20.163951a38.633877 38.633877 0 0 1-1.835193-28.771029l-112.315523-50.068543c-5.560362 6.217745-12.972774 10.655078-21.236412 12.709399a43.454683 43.454683 0 0 1-24.995292-1.211522c-8.008691-2.846551-14.915424-7.977086-19.793119-14.702618-4.877695-6.727638-7.492477-14.725794-7.492477-22.922008 0-8.196214 2.614782-16.19437 7.492477-22.919901 4.877695-6.727638 11.784428-11.858173 19.793119-14.702617a43.437827 43.437827 0 0 1 24.995292-1.21363c8.263638 2.054321 15.676049 6.491654 21.236412 12.711506l112.315523-50.068543a38.697086 38.697086 0 0 1-1.921581-12.068872z" fill="#FE3E3E" p-id="866"></path><path d="M505.158584 493.081284h-152.051358c-5.042041 0-9.87549 1.92158-13.440526 5.343342-3.565037 3.421761-5.566683 8.061366-5.566684 12.899028v36.488955c0 4.837663 2.001646 9.477267 5.566684 12.899029 3.565037 3.421761 8.398486 5.343342 13.440526 5.343341h152.051358c5.042041 0 9.87549-1.92158 13.440527-5.343341 3.565037-3.421761 5.566683-8.061366 5.566683-12.899029v-36.488955c0-4.837663-2.001646-9.477267-5.566683-12.899028-3.565037-3.421761-8.398486-5.343342-13.440527-5.343342z m-47.514864 45.608033h-19.00721v-18.24237h19.00721v18.24237z m38.012313 0h-19.00721v-18.24237h19.00721v18.24237z m9.502551 45.61014h-152.051358c-5.042041 0-9.87549 1.92158-13.440526 5.343341-3.565037 3.421761-5.566683 8.061366-5.566684 12.899029v36.488955c0 4.837663 2.001646 9.477267 5.566684 12.899029 3.565037 3.421761 8.398486 5.343342 13.440526 5.343341h152.051358c5.042041 0 9.87549-1.92158 13.440527-5.343341 3.565037-3.421761 5.566683-8.061366 5.566683-12.899029v-36.488955c0-4.837663-2.001646-9.477267-5.566683-12.899029-3.565037-3.421761-8.398486-5.343342-13.440527-5.343341z m-47.514864 45.608033h-19.00721v-18.242371h19.00721v18.242371z m38.012313 0h-19.00721v-18.242371h19.00721v18.242371z" fill="#FE3E3E" p-id="867"></path><path d="M1054.241712 347.131786h-152.053465c-5.042041 0-9.87549 1.92158-13.440527 5.343342-3.565037 3.421761-5.566683 8.061366-5.566683 12.899028v36.488955c0 4.837663 2.001646 9.477267 5.566683 12.899029 3.565037 3.421761 8.398486 5.343342 13.440527 5.343341h152.053465c5.039934 0 9.873383-1.92158 13.43842-5.343341 3.565037-3.421761 5.566683-8.061366 5.566683-12.899029V365.374156c0-4.837663-2.001646-9.477267-5.566683-12.899028-3.565037-3.421761-8.398486-5.343342-13.43842-5.343342z m-47.516971 45.608033h-19.00721v-18.24237h19.00721v18.24237z m38.012312 0h-19.007209v-18.24237h19.007209v18.24237z m9.504659 45.61014h-152.053465c-5.042041 0-9.87549 1.92158-13.440527 5.343341-3.565037 3.421761-5.566683 8.061366-5.566683 12.899029v36.488955c0 4.837663 2.001646 9.477267 5.566683 12.899029 3.565037 3.421761 8.398486 5.343342 13.440527 5.343341h152.053465c5.039934 0 9.873383-1.92158 13.43842-5.343341 3.565037-3.421761 5.566683-8.061366 5.566683-12.899029v-36.488955c0-4.837663-2.001646-9.477267-5.566683-12.899029-3.565037-3.421761-8.398486-5.343342-13.43842-5.343341z m-47.516971 45.608033h-19.00721v-18.242371h19.00721v18.242371z m38.012312 0h-19.007209v-18.242371h19.007209v18.242371z" fill="#FE3E3E" p-id="868"></path><path d="M1054.241712 620.109959h-152.053465c-5.042041 0-9.87549 1.923687-13.440527 5.343341-3.565037 3.421761-5.566683 8.063473-5.566683 12.901136v36.486848c0 4.83977 2.001646 9.479374 5.566683 12.901136 3.565037 3.421761 8.398486 5.343342 13.440527 5.343341h152.053465c5.039934 0 9.873383-1.92158 13.43842-5.343341 3.565037-3.421761 5.566683-8.061366 5.566683-12.901136v-36.486848c0-4.837663-2.001646-9.479374-5.566683-12.901136-3.565037-3.419654-8.398486-5.343342-13.43842-5.343341z m-47.516971 45.61014h-19.00721v-18.244478h19.00721v18.244478z m38.012312 0h-19.007209v-18.244478h19.007209v18.244478z m9.504659 45.608033h-152.053465c-5.042041 0-9.87549 1.923687-13.440527 5.343341-3.565037 3.421761-5.566683 8.063473-5.566683 12.901136v36.486848c0 4.83977 2.001646 9.479374 5.566683 12.901136 3.565037 3.421761 8.398486 5.343342 13.440527 5.343341h152.053465c5.039934 0 9.873383-1.92158 13.43842-5.343341 3.565037-3.421761 5.566683-8.061366 5.566683-12.901136v-36.486848c0-4.837663-2.001646-9.479374-5.566683-12.901136-3.565037-3.419654-8.398486-5.343342-13.43842-5.343341z m-47.516971 45.61014h-19.00721v-18.244478h19.00721v18.244478z m38.012312 0h-19.007209v-18.244478h19.007209v18.244478z" fill="#FE3E3E" p-id="869"></path></svg>