<?xml version="1.0" standalone="no"?><!DOCTYPE svg PUBLIC "-//W3C//DTD SVG 1.1//EN" "http://www.w3.org/Graphics/SVG/1.1/DTD/svg11.dtd"><svg t="1620787011251" class="icon" viewBox="0 0 1199 1024" version="1.1" xmlns="http://www.w3.org/2000/svg" p-id="1079" width="37.46875" height="32" xmlns:xlink="http://www.w3.org/1999/xlink"><defs><style type="text/css"></style></defs><path d="M341.377958 333.984935c-0.001424-31.860784-8.737469-63.096345-25.238253-90.241603-16.502209-27.145257-40.12257-49.136334-68.240556-63.53215a168.981363 168.981363 0 0 0-91.046276-18.020406c-31.412161 2.613408-61.49412 13.974253-86.904701 32.823544-25.412006 18.849291-45.158542 44.447866-57.047766 73.954448a174.108484 174.108484 0 0 0-10.302665 93.198242c5.151332 31.430676 18.819382 60.804807 39.487377 84.858125 20.667994 24.054743 47.526987 41.848701 77.594704 51.406509v188.252217c-38.866426 12.354937-72.074503 38.36938-93.609836 73.330648C4.536078 794.977202-3.905157 836.576668 2.27872 877.284584c6.183878 40.707917 26.581274 77.832545 57.500662 104.654509 30.919388 26.82054 70.31704 41.566709 111.061987 41.56671 40.743522 0 80.141174-14.74617 111.061986-41.56671 30.919388-26.821964 51.316784-63.946592 57.499237-104.654509 6.183878-40.707917-2.255933-82.307382-23.791265-117.270075-21.535332-34.961268-54.741986-60.975711-93.609836-73.330648V498.431644c34.595249-11.046097 64.812506-32.938904 86.275204-62.503878 21.462698-29.566398 33.055688-65.271099 33.101263-101.942831z m-170.536589-68.952657a67.696512 67.696512 0 0 1 37.897969 11.62005 68.800267 68.800267 0 0 1 25.124317 30.945024 69.64909 69.64909 0 0 1 3.880946 39.839154 69.191922 69.191922 0 0 1-18.668417 35.304501 67.99417 67.99417 0 0 1-34.927088 18.870654 67.545547 67.545547 0 0 1-39.413319-3.923672 68.375855 68.375855 0 0 1-30.613185-25.396339 69.479611 69.479611 0 0 1-11.496144-38.306715c0.019939-18.281035 7.213574-35.807243 20.001469-48.73471 12.789318-12.926042 30.127533-20.198008 48.213452-20.217947z m0 655.046676a67.697936 67.697936 0 0 1-37.89797-11.621474c-11.218426-7.575321-19.961591-18.345124-25.124317-30.9436a69.647666 69.647666 0 0 1-3.88237-39.839154 69.183377 69.183377 0 0 1 18.668417-35.304501 67.988473 67.988473 0 0 1 34.927088-18.870653 67.521335 67.521335 0 0 1 39.413318 3.923671 68.382976 68.382976 0 0 1 30.61461 25.394916 69.486732 69.486732 0 0 1 11.496144 38.308139c-0.021363 18.281035-7.213574 35.807243-20.002893 48.734709-12.787894 12.926042-30.127533 20.196584-48.212027 20.217947z" fill="#C969F5" fill-opacity=".68" p-id="1080"></path><path d="M751.2158 652.209669l-0.004273-129.113725a259.332629 259.332629 0 0 0-19.344912-98.997585c-12.860529-31.382253-31.749697-59.874804-55.576568-83.828429l-74.43013-75.231955h47.025669c13.568356 0 26.581274-5.447566 36.176111-15.14637 9.594837-9.698804 14.985435-22.852718 14.985435-36.567766 0-13.715049-5.390598-26.868962-14.985435-36.567767-9.594837-9.69738-22.607755-15.14637-36.176111-15.14637H478.364662c-1.696223 0-3.388172 0.086876-5.077274 0.259205-0.699282 0.068362-1.372929 0.202236-2.063666 0.300506-0.962759 0.133875-1.931216 0.254932-2.889703 0.444351-0.81037 0.163783-1.586559 0.387382-2.375566 0.58677-0.831733 0.210782-1.662042 0.395928-2.485229 0.646587-0.776189 0.236417-1.526743 0.534075-2.285842 0.808946-0.813218 0.293385-1.636406 0.561135-2.43823 0.901519-0.707828 0.297658-1.381474 0.646587-2.072212 0.974153-0.82746 0.387382-1.657769 0.761947-2.463866 1.197752-0.652284 0.353202-1.278932 0.757675-1.914125 1.142209-0.79328 0.478531-1.599377 0.934275-2.375567 1.461229-0.699282 0.472834-1.351566 0.999789-2.029485 1.508228-0.660829 0.495622-1.343021 0.964184-1.982487 1.499683a49.943855 49.943855 0 0 0-3.486442 3.188784l-0.256356 0.227873c-0.085452 0.082604-0.145268 0.172328-0.226448 0.254931a53.041491 53.041491 0 0 0-3.154603 3.529169c-0.511288 0.625224-0.954214 1.288901-1.428473 1.931215-0.519833 0.706403-1.065302 1.395716-1.550954 2.127755-0.504167 0.763371-0.938548 1.552378-1.398565 2.331416-0.393079 0.66795-0.81037 1.318809-1.172117 2.00385-0.422987 0.797552-0.780462 1.612195-1.152178 2.422565-0.340384 0.719221-0.69501 1.427049-0.99694 2.167633-0.324718 0.789007-0.583922 1.595104-0.865914 2.391232-0.280567 0.79328-0.583922 1.573741-0.823188 2.384111-0.242114 0.806097-0.425836 1.629285-0.622375 2.443928-0.203661 0.817491-0.434381 1.627861-0.59674 2.463866-0.18657 0.948517-0.297658 1.90558-0.430109 2.85837-0.102542 0.714949-0.239266 1.421352-0.307627 2.144846a51.932039 51.932039 0 0 0-0.254932 5.132818v172.359566c0 13.715049 5.389174 26.868962 14.984011 36.567766 9.594837 9.69738 22.607755 15.14637 36.176112 15.14637 13.56978 0 26.582698-5.44899 36.177535-15.14637 9.593413-9.698804 14.984011-22.852718 14.984011-36.567766v-47.534109l74.427283 75.231956a154.276495 154.276495 0 0 1 33.344801 50.298481 155.608122 155.608122 0 0 1 11.608656 59.399121l0.004273 129.113725c-38.86785 12.354937-72.074503 38.367955-93.609836 73.330648-21.535332 34.961268-29.975143 76.562159-23.791266 117.270075 6.183878 40.707917 26.581274 77.832545 57.500662 104.653085 30.919388 26.821964 70.31704 41.566709 111.060562 41.566709 40.744946 0 80.142598-14.744745 111.061986-41.566709 30.919388-26.82054 51.316784-63.945168 57.500662-104.653085 6.183878-40.707917-2.255933-82.308807-23.791265-117.270075-21.535332-34.962693-54.741986-60.975711-93.609836-73.330648v-0.004273z m-51.161547 233.399366a67.697936 67.697936 0 0 1-37.897969-11.621474 68.810236 68.810236 0 0 1-25.124317-30.945024 69.644818 69.644818 0 0 1-3.880946-39.83773 69.18765 69.18765 0 0 1 18.668417-35.304501 68.005563 68.005563 0 0 1 34.927088-18.872078 67.534153 67.534153 0 0 1 39.413318 3.925096 68.370159 68.370159 0 0 1 30.613185 25.394915 69.483883 69.483883 0 0 1 11.496145 38.308139c-0.019939 18.281035-7.213574 35.807243-20.001469 48.733285-12.787894 12.927466-30.127533 20.198008-48.213452 20.219372z" fill="#B42EF3" fill-opacity=".68" p-id="1081"></path><path d="M751.2158 652.209669l-0.004273-129.113725a259.332629 259.332629 0 0 0-19.344912-98.997585c-12.860529-31.382253-31.749697-59.874804-55.576568-83.828429l-74.43013-75.231955h47.025669c13.568356 0 26.581274-5.447566 36.176111-15.14637 9.594837-9.698804 14.985435-22.852718 14.985435-36.567766 0-13.715049-5.390598-26.868962-14.985435-36.567767-9.594837-9.69738-22.607755-15.14637-36.176111-15.14637H478.364662c-1.696223 0-3.388172 0.086876-5.077274 0.259205-0.699282 0.068362-1.372929 0.202236-2.063666 0.300506-0.962759 0.133875-1.931216 0.254932-2.889703 0.444351-0.81037 0.163783-1.586559 0.387382-2.375566 0.58677-0.831733 0.210782-1.662042 0.395928-2.485229 0.646587-0.776189 0.236417-1.526743 0.534075-2.285842 0.808946-0.813218 0.293385-1.636406 0.561135-2.43823 0.901519-0.707828 0.297658-1.381474 0.646587-2.072212 0.974153-0.82746 0.387382-1.657769 0.761947-2.463866 1.197752-0.652284 0.353202-1.278932 0.757675-1.914125 1.142209-0.79328 0.478531-1.599377 0.934275-2.375567 1.461229-0.699282 0.472834-1.351566 0.999789-2.029485 1.508228-0.660829 0.495622-1.343021 0.964184-1.982487 1.499683a49.943855 49.943855 0 0 0-3.486442 3.188784l-0.256356 0.227873c-0.085452 0.082604-0.145268 0.172328-0.226448 0.254931a53.041491 53.041491 0 0 0-3.154603 3.529169c-0.511288 0.625224-0.954214 1.288901-1.428473 1.931215-0.519833 0.706403-1.065302 1.395716-1.550954 2.127755-0.504167 0.763371-0.938548 1.552378-1.398565 2.331416-0.393079 0.66795-0.81037 1.318809-1.172117 2.00385-0.422987 0.797552-0.780462 1.612195-1.152178 2.422565-0.340384 0.719221-0.69501 1.427049-0.99694 2.167633-0.324718 0.789007-0.583922 1.595104-0.865914 2.391232-0.280567 0.79328-0.583922 1.573741-0.823188 2.384111-0.242114 0.806097-0.425836 1.629285-0.622375 2.443928-0.203661 0.817491-0.434381 1.627861-0.59674 2.463866-0.18657 0.948517-0.297658 1.90558-0.430109 2.85837-0.102542 0.714949-0.239266 1.421352-0.307627 2.144846a51.932039 51.932039 0 0 0-0.254932 5.132818v172.359566c0 13.715049 5.389174 26.868962 14.984011 36.567766 9.594837 9.69738 22.607755 15.14637 36.176112 15.14637 13.56978 0 26.582698-5.44899 36.177535-15.14637 9.593413-9.698804 14.984011-22.852718 14.984011-36.567766v-47.534109l74.427283 75.231956a154.276495 154.276495 0 0 1 33.344801 50.298481 155.608122 155.608122 0 0 1 11.608656 59.399121l0.004273 129.113725c-38.86785 12.354937-72.074503 38.367955-93.609836 73.330648-21.535332 34.961268-29.975143 76.562159-23.791266 117.270075 6.183878 40.707917 26.581274 77.832545 57.500662 104.653085 30.919388 26.821964 70.31704 41.566709 111.060562 41.566709 40.744946 0 80.142598-14.744745 111.061986-41.566709 30.919388-26.82054 51.316784-63.945168 57.500662-104.653085 6.183878-40.707917-2.255933-82.308807-23.791265-117.270075-21.535332-34.962693-54.741986-60.975711-93.609836-73.330648v-0.004273z m-51.161547 233.399366a67.697936 67.697936 0 0 1-37.897969-11.621474 68.810236 68.810236 0 0 1-25.124317-30.945024 69.644818 69.644818 0 0 1-3.880946-39.83773 69.18765 69.18765 0 0 1 18.668417-35.304501 68.005563 68.005563 0 0 1 34.927088-18.872078 67.534153 67.534153 0 0 1 39.413318 3.925096 68.370159 68.370159 0 0 1 30.613185 25.394915 69.483883 69.483883 0 0 1 11.496145 38.308139c-0.019939 18.281035-7.213574 35.807243-20.001469 48.733285-12.787894 12.927466-30.127533 20.198008-48.213452 20.219372z" fill="#B42EF3" fill-opacity=".68" p-id="1082"></path><path d="M1197.884885 37.403772L945.885463 355.201246l-197.958142-166.40356 37.349653-45.206966 152.204283 127.907427L1152.364595 0.672223l45.52029 36.730125z" fill="#52FF55" p-id="1083"></path></svg>