<?xml version="1.0" standalone="no"?><!DOCTYPE svg PUBLIC "-//W3C//DTD SVG 1.1//EN" "http://www.w3.org/Graphics/SVG/1.1/DTD/svg11.dtd"><svg t="1620787106219" class="icon" viewBox="0 0 1024 1024" version="1.1" xmlns="http://www.w3.org/2000/svg" p-id="2520" width="32" height="32" xmlns:xlink="http://www.w3.org/1999/xlink"><defs><style type="text/css"></style></defs><path d="M915.553212 720.040594a49.991902 49.991902 0 0 1-29.551942-9.649981c-22.397956-16.345968-27.305947-47.749907-10.961979-70.147863 6.061988-8.307984 6.923986-15.27197 2.981994-24.033954-8.133984-18.073965-31.901938-33.879934-54.113894-35.991929-27.603946-2.619995-47.851907-27.121947-45.231912-54.723893 2.617995-27.605946 27.075947-47.887906 54.723893-45.231912 58.453886 5.549989 113.181779 43.623915 136.185734 94.741815 18.755963 41.673919 13.857973 87.02783-13.433973 124.427757-9.829981 13.465974-25.105951 20.60996-40.597921 20.60996zM108.442788 720.040594c-15.48997 0-30.76594-7.143986-40.593921-20.61196-27.291947-37.399927-32.187937-82.753838-13.435973-124.427757 23.001955-51.1159 77.731848-89.189826 136.183734-94.741815 27.625946-2.651995 52.103898 17.631966 54.723893 45.231912 2.619995 27.603946-17.631966 52.103898-45.233912 54.723893-22.209957 2.111996-45.97991 17.915965-54.111894 35.991929-3.945992 8.763983-3.081994 15.727969 2.979994 24.033954 16.345968 22.397956 11.435978 53.801895-10.961979 70.147863a49.979902 49.979902 0 0 1-29.549942 9.651981z" fill="#F3C74F" p-id="2521"></path><path d="M245.322521 525.488974c-2.619995-27.603946-27.101947-47.885906-54.723893-45.231912-23.179955 2.201996-45.769911 9.533981-66.031871 20.749959 0.491999 40.88592 7.793985 80.133843 20.833959 116.671773 0.194-0.491999 0.349999-0.971998 0.575999-1.475998 8.131984-18.073965 31.901938-33.879934 54.111894-35.989929 27.601946-2.617995 47.853907-27.119947 45.233912-54.723893z" opacity=".2" p-id="2522"></path><path d="M619.937789 1023.998c-27.727946 0-50.203902-22.477956-50.203902-50.203902v-190.109629c0-27.727946 22.477956-50.203902 50.203902-50.203902s50.203902 22.477956 50.203902 50.203902v190.109629C670.139691 1001.520044 647.663735 1023.998 619.937789 1023.998z" fill="#F3C74F" p-id="2523"></path><path d="M619.937789 733.478567c-27.727946 0-50.203902 22.477956-50.203902 50.203902v105.291795a360.437296 360.437296 0 0 0 100.407804-31.565939v-73.725856c-0.002-27.725946-22.477956-50.203902-50.203902-50.203902z" opacity=".2" p-id="2524"></path><path d="M404.058211 1023.998c-27.727946 0-50.203902-22.477956-50.203902-50.203902v-190.109629c0-27.727946 22.477956-50.203902 50.203902-50.203902 27.727946 0 50.203902 22.477956 50.203902 50.203902v190.109629c0.002 27.725946-22.473956 50.203902-50.203902 50.203902z" fill="#F3C74F" p-id="2525"></path><path d="M404.058211 733.478567c-27.727946 0-50.203902 22.477956-50.203902 50.203902v73.725856a360.371296 360.371296 0 0 0 100.407804 31.565939v-105.291795c0.002-27.725946-22.473956-50.203902-50.203902-50.203902z" opacity=".2" p-id="2526"></path><path d="M790.091457 170.705667m-115.305775 0a115.305775 115.305775 0 1 0 230.61155 0 115.305775 115.305775 0 1 0-230.61155 0Z" fill="#0081C6" p-id="2527"></path><path d="M790.091457 170.705667m-53.833895 0a53.833895 53.833895 0 1 0 107.66779 0 53.833895 53.833895 0 1 0-107.66779 0Z" fill="#F3C74F" p-id="2528"></path><path d="M233.884543 170.705667m-115.305775 0a115.305775 115.305775 0 1 0 230.61155 0 115.305775 115.305775 0 1 0-230.61155 0Z" fill="#0081C6" p-id="2529"></path><path d="M233.884543 170.705667m-53.833895 0a53.833895 53.833895 0 1 0 107.66779 0 53.833895 53.833895 0 1 0-107.66779 0Z" fill="#F3C74F" p-id="2530"></path><path d="M302.05641 77.719848c-54.211894 48.995904-100.193804 116.447773-132.85774 188.439632 18.447964 12.525976 40.71592 19.851961 64.695873 19.851961 63.679876 0 115.305775-51.625899 115.305775-115.305774-0.002-38.173925-18.565964-72.001859-47.143908-92.985819z" opacity=".2" p-id="2531"></path><path d="M874.293292 486.897049C874.293292 287.399439 707.975617 0 512 0S149.702708 287.399439 149.702708 486.897049 311.908391 848.120344 512 848.120344s362.293292-161.723684 362.293292-361.223295z" fill="#40BAB3" p-id="2532"></path><path d="M512 452.893115c55.725891 0 88.179828 21.403958 112.293781 0.957999 43.915914-37.235927-21.407958-94.355816-112.293781-94.355816s-156.209695 57.121888-112.293781 94.355816c24.113953 20.44596 56.56789-0.957998 112.293781-0.957999z" fill="#F0B0B7" p-id="2533"></path><path d="M512 407.983203c-37.619927 0-68.115867 23.047955-68.115867 51.4839 0 0.529999 0.03 1.055998 0.052 1.581997 18.103965-2.793995 40.167922-8.153984 68.063867-8.153985 27.893946 0 49.957902 5.36199 68.063867 8.153985 0.022-0.525999 0.052-1.051998 0.052-1.581997-0.002-28.435944-30.49794-51.483899-68.115867-51.4839z" fill="#E6595A" p-id="2534"></path><path d="M299.430415 326.223363m-63.173876 0a63.173877 63.173877 0 1 0 126.347753 0 63.173877 63.173877 0 1 0-126.347753 0Z" fill="#FFFFFF" p-id="2535"></path><path d="M724.567585 326.223363m-63.173877 0a63.173877 63.173877 0 1 0 126.347753 0 63.173877 63.173877 0 1 0-126.347753 0Z" fill="#FFFFFF" p-id="2536"></path><path d="M155.806696 553.14692C187.014635 721.002592 334.608346 848.122344 512 848.122344s324.983365-127.119752 356.193304-294.975424H155.806696z" fill="#FFFFFF" p-id="2537"></path><path d="M219.94057 700.634632c65.941871 89.435825 172.189664 147.487712 292.05943 147.487712s226.117558-58.051887 292.05943-147.487712H219.94057z" fill="#0081C6" p-id="2538"></path><path d="M550.415925 809.704419c-200.089609 0-362.297292-161.725684-362.297292-361.223295 0-120.105765 60.295882-272.041469 151.035705-373.97327-111.749782 98.649807-189.45363 276.039461-189.45363 412.389195 0 199.49761 162.205683 361.225294 362.297292 361.225295 110.009785 0 208.559593-48.897904 275.003463-126.073754-63.475876 54.619893-146.159715 87.655829-236.585538 87.655829z" opacity=".2" p-id="2539"></path><path d="M299.428415 405.825207c-43.895914 0-79.605845-35.71193-79.605844-79.605844s35.71193-79.605845 79.605844-79.605845c43.895914 0 79.605845 35.71193 79.605845 79.605845s-35.71193 79.605845-79.605845 79.605844z m0-126.349753c-25.77595 0-46.743909 20.967959-46.743909 46.743909s20.969959 46.743909 46.743909 46.743909c25.77595 0 46.743909-20.967959 46.743909-46.743909 0-25.77395-20.969959-46.743909-46.743909-46.743909zM724.567585 405.825207c-43.893914 0-79.605845-35.71193-79.605845-79.605844s35.71193-79.605845 79.605845-79.605845c43.895914 0 79.607845 35.71193 79.607844 79.605845s-35.71193 79.605845-79.607844 79.605844z m0-126.349753c-25.77595 0-46.743909 20.967959-46.743909 46.743909s20.967959 46.743909 46.743909 46.743909 46.745909-20.967959 46.745909-46.743909c0-25.77395-20.969959-46.743909-46.745909-46.743909z" fill="#394049" p-id="2540"></path><path d="M174.490659 747.43654c-45.199912 0-83.901836-16.841967-106.643792-48.009906-16.345968-22.397956-11.437978-53.801895 10.959979-70.147863 22.393956-16.341968 53.803895-11.435978 70.147863 10.961979 3.361993 4.607991 22.263957 10.561979 50.739901 3.457993 39.189923-9.781981 88.045828-42.929916 96.755811-104.165797 3.903992-27.449946 29.311943-46.531909 56.773889-42.633917 27.449946 3.905992 46.537909 29.323943 42.633917 56.77389-15.733969 110.627784-102.4078 170.117668-171.853665 187.447633-17.021967 4.245992-33.671934 6.315988-49.513903 6.315988zM849.507341 747.43654c-15.845969 0-32.483937-2.067996-49.517903-6.319987-69.443864-17.327966-156.119695-76.81785-171.855665-187.447634-3.905992-27.449946 15.18397-52.869897 42.633917-56.773889 27.425946-3.891992 52.869897 15.18197 56.773889 42.633916 8.709983 61.23588 57.565888 94.385816 96.757811 104.165797 28.481944 7.111986 47.379907 1.149998 50.739901-3.457993 16.341968-22.399956 47.747907-27.305947 70.147863-10.961979 22.397956 16.345968 27.305947 47.749907 10.961979 70.147863-22.737956 31.167939-61.44788 48.013906-106.641792 48.013906z" fill="#F3C74F" p-id="2541"></path><path d="M224.944561 511.671001a16.431968 16.431968 0 0 1-3.241994-32.535937c31.945938-6.467987 66.71387-25.909949 103.339798-57.789887a16.431968 16.431968 0 0 1 21.573958 24.785952c-40.96992 35.65793-80.803842 57.599888-118.391769 65.209872a16.619968 16.619968 0 0 1-3.279993 0.33zM201.506606 463.103096a16.431968 16.431968 0 0 1-3.483993-32.487937c14.373972-3.133994 30.47194-10.37598 34.729932-14.513972a16.433968 16.433968 0 0 1 23.231955 0.324 16.431968 16.431968 0 0 1-0.325999 23.231954c-11.691977 11.369978-36.687928 20.021961-50.633901 23.061955-1.179998 0.259999-2.357995 0.383999-3.517994 0.384zM799.051439 511.671001c-1.079998 0-2.177996-0.108-3.277993-0.328-37.587927-7.609985-77.423849-29.547942-118.391769-65.209872a16.431968 16.431968 0 0 1 21.573958-24.785952c36.627928 31.879938 71.393861 51.3219 103.339798 57.789887a16.425968 16.425968 0 0 1 12.841975 19.363962 16.431968 16.431968 0 0 1-16.085969 13.169975zM822.489394 463.103096a16.419968 16.419968 0 0 1-3.513994-0.382c-13.947973-3.041994-38.941924-11.693977-50.633901-23.061955a16.425968 16.425968 0 0 1-0.323999-23.231954 16.425968 16.425968 0 0 1 23.231955-0.324c4.253992 4.137992 20.35196 11.377978 34.727932 14.513972a16.431968 16.431968 0 0 1 12.553975 19.553962 16.447968 16.447968 0 0 1-16.041968 12.931975z" opacity=".3" p-id="2542"></path></svg>