<?xml version="1.0" standalone="no"?><!DOCTYPE svg PUBLIC "-//W3C//DTD SVG 1.1//EN" "http://www.w3.org/Graphics/SVG/1.1/DTD/svg11.dtd"><svg t="1620786865987" class="icon" viewBox="0 0 1024 1024" version="1.1" xmlns="http://www.w3.org/2000/svg" p-id="6862" width="32" height="32" xmlns:xlink="http://www.w3.org/1999/xlink"><defs><style type="text/css"></style></defs><path d="M862.8 497.761l-89.325 0c-11.834 0-21.399-9.596-21.399-21.435l0-103.34c0-57.281 68.096-95.244 95.719-95.244 13.629 0 36.47 6.126 36.47 47.083l0 151.502c0.001 11.839-9.623 21.435-21.465 21.435l0 0zM794.882 454.898l46.514 0 0-132.702c-15.721 5.767-46.514 26.399-46.514 50.793l0 81.91zM794.882 454.898zM902.263 939.245l-168.245 0c-11.84 0-21.406-9.599-21.406-21.435l0-368.928c0-11.84 9.567-21.435 21.406-21.435l168.245 0c11.836 0 21.402 9.594 21.402 21.435l0 368.928c0.006 11.835-9.566 21.435-21.402 21.435l0 0zM755.481 896.375l125.378 0 0-326.059-125.378 0 0 326.059zM755.481 896.375zM638.298 939.245l-108.758 0c-11.84 0-21.463-9.599-21.463-21.435l0-513.735c0-11.839 9.623-21.435 21.463-21.435l108.758 0c11.836 0 21.459 9.596 21.459 21.435l0 513.735c0.001 11.835-9.623 21.435-21.459 21.435l0 0zM550.943 896.375zM583.888 357.321c-11.839 0-21.462-9.596-21.462-21.435l0-275.207c0-11.84 9.625-21.435 21.462-21.435 11.84 0 21.463 9.594 21.463 21.435l0 275.209c0.001 11.839-9.622 21.435-21.463 21.435l0 0zM583.888 357.321zM639.79 143.634l-111.803 0c-11.836 0-21.465-9.596-21.465-21.435 0-11.835 9.628-21.435 21.465-21.435l111.803 0c11.839 0 21.462 9.599 21.462 21.435 0.007 11.839-9.625 21.435-21.462 21.435l0 0zM639.79 143.634zM639.79 216.429l-111.803 0c-11.836 0-21.465-9.599-21.465-21.435 0-11.839 9.628-21.435 21.465-21.435l111.803 0c11.839 0 21.462 9.596 21.462 21.435 0.007 11.84-9.625 21.435-21.462 21.435l0 0zM639.79 216.429zM639.79 289.22l-111.803 0c-11.836 0-21.465-9.596-21.465-21.435 0-11.84 9.628-21.435 21.465-21.435l111.803 0c11.839 0 21.462 9.594 21.462 21.435 0.007 11.839-9.625 21.435-21.462 21.435l0 0zM639.79 289.22zM382.698 939.245l-200.531 0c-23.615 0-46.039-10.198-61.582-27.987-15.545-17.783-22.718-41.399-19.49-64.807l20.989-155.779c5.439-40.419 40.297-70.909 81.067-70.909l158.564 0c40.775 0 75.633 30.491 81.072 70.909l20.988 155.779c3.225 23.376-3.887 46.995-19.434 64.779-15.545 17.789-38.025 28.016-61.642 28.016l0 0zM203.152 662.63c-19.43 0-36.047 14.53-38.62 33.785l-20.989 155.775c-1.553 11.123 1.917 22.395 9.331 30.853 7.35 8.493 18.053 13.334 29.294 13.334l200.53 0c11.242 0 22.002-4.841 29.417-13.334 7.357-8.458 10.762-19.7 9.207-30.853l-20.988-155.775c-2.567-19.254-19.19-33.785-38.62-33.785l-158.563 0zM203.152 662.63zM375.939 586.489l-187.014 0c-11.839 0-21.468-9.594-21.468-21.435l0-114.974c0-11.834 9.629-21.435 21.468-21.435l187.019 0c11.835 0 21.465 9.6 21.465 21.435l0 114.974c0.001 11.839-9.629 21.435-21.47 21.435l0 0zM210.391 543.62l144.09 0 0-72.106-144.091 0 0 72.106 0.001 0zM210.391 543.62z" fill="#d4237a" p-id="6863"></path></svg>