<?xml version="1.0" standalone="no"?><!DOCTYPE svg PUBLIC "-//W3C//DTD SVG 1.1//EN" "http://www.w3.org/Graphics/SVG/1.1/DTD/svg11.dtd"><svg t="1620787080254" class="icon" viewBox="0 0 1024 1024" version="1.1" xmlns="http://www.w3.org/2000/svg" p-id="1347" width="32" height="32" xmlns:xlink="http://www.w3.org/1999/xlink"><defs><style type="text/css"></style></defs><path d="M514 1021.1c-340 0-510-170-510-510s170-510 510-510 510 170 510 510-170 510-510 510z" fill="#FA2A2A" p-id="1348"></path><path d="M514 1C174 1 4 171 4 511c0 99.7 14.7 184.6 43.9 255.1h932.2c29.2-70.5 43.9-155.4 43.9-255.1C1024 171 854 1 514 1z" fill="#FF685C" opacity=".2" p-id="1349"></path><path d="M514 1C174 1 4 171 4 511c0 16.4 0.5 32.3 1.3 47.9h1017.5c0.8-15.6 1.3-31.5 1.3-47.9C1024 171 854 1 514 1z" fill="#FF685C" opacity=".4" p-id="1350"></path><path d="M6.1 447.3h1015.8C1001.3 149.8 832 1 514 1 195.9 1 26.6 149.8 6.1 447.3z" fill="#FF685C" opacity=".4" p-id="1351"></path><path d="M997 303.9C936.9 102 775.9 1 514 1 252 1 91 102 30.9 303.9H997z" fill="#FF685C" opacity=".4" p-id="1352"></path><path d="M954.6 208.2v-7.9C874.9 67.5 728.7 1 516.2 1 299.5 1 152 70.2 73.4 208.2h881.2z" fill="#FF685C" opacity=".4" p-id="1353"></path><path d="M911.5 144.5C826.8 48.8 694.3 1 514 1S201.1 48.8 116.4 144.5h795.1z" fill="#FF685C" opacity=".6" p-id="1354"></path><path d="M778.3 48.9C706.1 17 618 1 514 1S321.8 17 249.6 48.9h528.7z" fill="#FF685C" p-id="1355"></path><path d="M667.5 272c9.9 0 18.5 6 20.8 14.5 1.8 6.6 2.7 9.9 7.7 13.8 3.4 5.2 18.2 30.8 33.9 104.3 0.5 2.2 1.9 8.9-5.4 17.9-9.4 11.7-27 19.5-43.6 19.5-16.5 0-31.8-7.6-40.8-20.4-6-8.5-15.7-13.6-26.1-13.6-10.4 0-20.1 5.1-26.1 13.6-6.3 8.9-34.9 20.4-56.7 20.4-21.8 0-50.4-11.5-56.7-20.4-6-8.5-15.7-13.6-26.1-13.6s-20.1 5.1-26.1 13.6c-9 12.8-24.2 20.4-40.8 20.4-16.5 0-34-7.8-43.4-19.3-7.5-9.1-6-16-5.6-18.3 14.8-71.7 29.1-97.2 32.8-103 6-3.9 6.6-7.5 8.7-15 2.3-8.5 10.9-14.5 20.8-14.5h272.7m0-31.8H395c-24.9 0-45.6 16.2-51.6 37.9 0 0-21 18.1-42 119.9-8.5 41.1 35.9 75.9 80.2 75.9 27.9 0 52.5-13.5 66.9-34 14.4 20.5 54.9 34 82.8 34s68.4-13.5 82.8-34c14.4 20.5 38.9 34 66.8 34 44.3 0 89-34.8 80.2-75.9-21.2-99.9-42-119.9-42-119.9-5.9-21.7-26.7-37.9-51.6-37.9z" fill="#FFFFFF" p-id="1356"></path><path d="M672.7 716.5H389.8c-28.6 0-51.8-23-51.8-51.4V509.3c0-8.8 7.1-15.9 15.9-15.9s15.9 7.1 15.9 15.9v155.8c0 10.7 8.9 19.5 19.9 19.5h282.9c11 0 19.9-8.7 19.9-19.5V509.3c0-8.8 7.1-15.9 15.9-15.9s15.9 7.1 15.9 15.9v155.8c0.2 28.4-23 51.4-51.6 51.4z" fill="#FFFFFF" p-id="1357"></path><path d="M516.9 536.3c13.3 13.2 74.9-22 85.1 25.7 7 32.9-24 66.3-76.8 59.9-36-4.4-65.7-27.2-65.7-60.7 0-33.6 38.7-43.5 57.4-24.9z" fill="#FFFFFF" p-id="1358"></path></svg>