<?xml version="1.0" standalone="no"?><!DOCTYPE svg PUBLIC "-//W3C//DTD SVG 1.1//EN" "http://www.w3.org/Graphics/SVG/1.1/DTD/svg11.dtd"><svg t="1620787070100" class="icon" viewBox="0 0 1024 1024" version="1.1" xmlns="http://www.w3.org/2000/svg" p-id="1086" width="32" height="32" xmlns:xlink="http://www.w3.org/1999/xlink"><defs><style type="text/css"></style></defs><path d="M194.56 234.7008h459.5712c61.8496 0 119.6032 51.2 129.2288 117.3504l61.0304 418.2016c14.1312 96.256-39.3216 179.2-120.2176 179.2H124.5184c-80.6912 0-134.144-82.944-120.2176-179.2L65.536 352.0512c9.6256-66.1504 67.1744-117.3504 129.024-117.3504z" fill="#EC7F37" p-id="1087"></path><path d="M780.0832 336.6912c-15.5648-58.5728-69.0176-102.1952-125.952-102.1952H194.56c-56.9344 0-110.3872 43.4176-125.952 102.1952h711.4752z" fill="#F8C846" opacity=".2" p-id="1088"></path><path d="M793.8048 424.3456l-10.4448-72.2944c-9.6256-66.3552-67.3792-117.3504-129.2288-117.3504H194.56c-61.8496 0-119.6032 51.2-129.2288 117.3504l-10.4448 72.2944h738.9184z" fill="#F8C846" opacity=".2" p-id="1089"></path><path d="M808.7552 526.5408l-25.3952-174.4896c-9.6256-66.3552-67.3792-117.3504-129.2288-117.3504H194.56c-61.8496 0-119.6032 51.2-129.2288 117.3504l-25.3952 174.4896h768.8192z" fill="#F8C846" opacity=".2" p-id="1090"></path><path d="M825.7536 643.2768l-42.3936-291.2256c-9.6256-66.3552-67.3792-117.3504-129.2288-117.3504H194.56c-61.8496 0-119.6032 51.2-129.2288 117.3504L22.9376 643.2768h802.816z" fill="#F8C846" opacity=".2" p-id="1091"></path><path d="M838.656 730.7264l-55.0912-378.6752c-9.6256-66.3552-67.3792-117.3504-129.2288-117.3504H194.56c-61.8496 0-119.6032 51.2-129.2288 117.3504L10.24 730.7264h828.416z" fill="#F8C846" opacity=".2" p-id="1092"></path><path d="M561.9712 320.9216c9.6256-19.456 15.1552-41.3696 15.1552-64.512 0-80.4864-65.3312-145.8176-145.8176-145.8176-80.4864 0-145.8176 65.3312-145.8176 145.8176 0 23.1424 5.5296 45.056 15.1552 64.512-32.1536 10.8544-60.416 25.6-83.3536 43.2128-12.4928-28.4672-19.456-60.0064-19.456-92.9792 0-129.024 104.448-233.472 233.472-233.472s233.472 104.448 233.472 233.472c0 33.1776-6.9632 64.512-19.456 92.9792-23.1424-17.6128-51.4048-32.3584-83.3536-43.2128z" fill="#EC7F37" p-id="1093"></path><path d="M587.776 98.5088c-41.3696-37.6832-96.256-60.8256-156.672-60.8256S315.8016 60.8256 274.432 98.5088h313.344z" fill="#F8C846" opacity=".2" p-id="1094"></path><path d="M347.136 137.4208c23.7568-16.7936 52.6336-26.8288 83.968-26.8288s60.2112 10.0352 83.968 26.8288h107.1104c-42.1888-60.2112-112.0256-99.7376-191.0784-99.7376s-148.8896 39.5264-191.0784 99.7376h107.1104z" fill="#F8C846" opacity=".2" p-id="1095"></path><path d="M303.5136 185.9584C328.2944 141.1072 376.2176 110.592 431.104 110.592s102.8096 30.5152 127.7952 75.3664h89.4976C614.4 99.1232 530.0224 37.6832 431.104 37.6832s-183.0912 61.6448-217.2928 148.2752h89.7024z" fill="#F8C846" opacity=".2" p-id="1096"></path><path d="M286.3104 239.616c8.3968-72.704 70.0416-129.024 144.7936-129.024s136.3968 56.32 144.7936 128.8192h86.2208c-15.5648-113.8688-112.8448-201.9328-231.0144-201.9328-118.1696 0-215.6544 87.8592-231.0144 201.9328h86.2208z" fill="#F8C846" opacity=".2" p-id="1097"></path><path d="M288.768 288.1536c-2.2528-10.24-3.6864-20.6848-3.6864-31.5392 0-80.4864 65.3312-145.8176 145.8176-145.8176 80.4864 0 145.8176 65.3312 145.8176 145.8176 0 10.8544-1.2288 21.504-3.6864 31.5392h90.3168c0.4096-5.7344 0.8192-11.264 0.8192-16.9984 0-129.024-104.448-233.472-233.472-233.472s-233.472 104.448-233.472 233.472c0 5.7344 0.4096 11.4688 0.8192 16.9984H288.768z" fill="#F8C846" opacity=".2" p-id="1098"></path><path d="M832.3072 621.1584c104.8576 0 189.6448 84.992 189.6448 189.6448 0 104.8576-84.992 189.6448-189.6448 189.6448s-189.6448-84.992-189.6448-189.6448c0-104.6528 84.7872-189.6448 189.6448-189.6448z" fill="#EC7F37" p-id="1099"></path><path d="M975.6672 686.8992c-34.816-40.1408-86.016-65.7408-143.36-65.7408s-108.7488 25.6-143.36 65.7408h286.72z" fill="#F8C846" opacity=".2" p-id="1100"></path><path d="M1012.736 752.64c-24.576-76.1856-96.0512-131.4816-180.4288-131.4816s-155.8528 55.296-180.4288 131.4816h360.8576z" fill="#F8C846" opacity=".2" p-id="1101"></path><path d="M1021.5424 818.3808c0-2.4576 0.4096-4.9152 0.4096-7.3728 0-104.8576-84.992-189.6448-189.6448-189.6448s-189.6448 84.992-189.6448 189.6448c0 2.4576 0.2048 4.9152 0.4096 7.3728h378.4704z" fill="#F8C846" opacity=".2" p-id="1102"></path><path d="M1010.0736 876.7488c7.5776-20.48 11.8784-42.5984 11.8784-65.7408 0-104.8576-84.992-189.6448-189.6448-189.6448s-189.6448 84.992-189.6448 189.6448c0 23.1424 4.3008 45.2608 11.8784 65.7408h355.5328z" fill="#F8C846" opacity=".2" p-id="1103"></path><path d="M981.4016 927.744c25.1904-32.1536 40.5504-72.704 40.5504-116.9408 0-104.8576-84.992-189.6448-189.6448-189.6448s-189.6448 84.992-189.6448 189.6448c0 44.032 15.1552 84.5824 40.5504 116.9408h298.1888z" fill="#F8C846" opacity=".2" p-id="1104"></path><path d="M848.0768 731.136l63.6928 63.6928c8.8064 8.8064 8.8064 23.1424 0 31.9488l-63.6928 63.6928c-8.8064 8.8064-22.9376 8.8064-31.744 0l-63.6928-63.6928c-8.8064-8.8064-8.8064-23.1424 0-31.9488l63.6928-63.6928c8.8064-8.8064 23.1424-8.8064 31.744 0z" fill="#FFFFFF" p-id="1105"></path></svg>