<?xml version="1.0" standalone="no"?><!DOCTYPE svg PUBLIC "-//W3C//DTD SVG 1.1//EN" "http://www.w3.org/Graphics/SVG/1.1/DTD/svg11.dtd"><svg t="1620786620001" class="icon" viewBox="0 0 1024 1024" version="1.1" xmlns="http://www.w3.org/2000/svg" p-id="5800" data-spm-anchor-id="a313x.7781069.0.i9" width="32" height="32" xmlns:xlink="http://www.w3.org/1999/xlink"><defs><style type="text/css"></style></defs><path d="M512 32C246.90133344 32 32 246.89066656 32 512s214.90133344 480 480 480c265.10933344 0 480-214.89066656 480-480S777.10933344 32 512 32z m246.07999969 523.38133312c-19.47733313 64.24533375-46.43200031 119.232-80.07466594 163.38133313-42.74133375 56.09599969-97.32266625 92.17066687-160.25600062 112.32a18.50666625 18.50666625 0 0 1-11.49866625 0.01066687c-62.94400031-20.16-115.51999969-56.22400031-158.26133344-112.33066687-33.65333344-44.14933312-60.58666687-99.12533344-80.07466688-163.37066625C235.04 447.01866687 234.66666687 350.47466656 234.66666687 346.42133375a18.88000031 18.88000031 0 0 1 17.05599938-18.78400031c1.46133375-0.14933344 148.05333375-15.18933375 250.19733375-89.36533313a18.88000031 18.88000031 0 0 1 22.18666688 0c102.10133344 74.17600031 248.71466625 89.22666656 250.17599999 89.36533313 9.68533313 0.93866625 15.05066625 9.06666656 15.05066625 18.78400031 0 4.05333375 1.632 100.59733312-31.25333343 208.95999937z" fill="#ff2727" p-id="5801"></path><path d="M469.33333344 512a10.66666687 10.66666687 0 0 0-10.66666688-10.66666687h-31.99999968V373.33333344a10.66666687 10.66666687 0 0 0-21.33333375 0v127.99999968h-31.99999969a10.66666687 10.66666687 0 1 0 0 21.33333375h31.99999969v149.33333344a10.66666687 10.66666687 0 1 0 21.33333375 0V522.66666687h31.99999968a10.66666687 10.66666687 0 0 0 10.66666688-10.66666687zM672.00000031 480.00000031h-85.33333406v-21.33333375h64.00000031a10.66666687 10.66666687 0 1 0 0-21.33333281h-64.00000031v-21.33333375h74.66666719a10.66666687 10.66666687 0 1 0 0-21.33333375h-74.66666719v-21.33333281a10.66666687 10.66666687 0 1 0-21.33333281 0v21.33333281h-74.66666719a10.66666687 10.66666687 0 1 0 0 21.33333375h74.66666719v21.33333375h-64.00000031a10.66666687 10.66666687 0 1 0 0 21.33333281h64.00000031v21.33333375h-85.33333313a10.66666687 10.66666687 0 1 0 0 21.33333281h192a10.66666687 10.66666687 0 1 0 0-21.33333281zM629.33333375 512H522.66666687a31.99999969 31.99999969 0 0 0-32.00000062 31.99999969v128.00000062a10.66666687 10.66666687 0 1 0 21.33333375 0v-42.66666656h127.99999969v21.33333281a10.66666687 10.66666687 0 0 1-10.66666594 10.66666688h-32.00000062a10.66666687 10.66666687 0 1 0 0 21.33333281h32.00000062a31.99999969 31.99999969 0 0 0 31.99999969-31.99999969V543.99999969a31.99999969 31.99999969 0 0 0-31.99999969-31.99999969z m10.66666594 96H512v-21.33333375h127.99999969v21.33333375z m0-42.66666656H512v-21.33333375c0-5.88799969 4.78933313-10.66666687 10.66666687-10.66666594h106.66666688a10.66666687 10.66666687 0 0 1 10.66666594 10.66666594v21.33333375z" fill="#ff2727" p-id="5802"></path><path d="M373.54666625 471.296c1.18399969 5.87733375 6.816 9.66400031 12.59733375 8.50133344 5.77066687-1.16266687 9.49333312-6.88000031 8.30933344-12.73600031l-14.99733375-74.33599969a10.74133312 10.74133312 0 0 0-12.59733282-8.50133344 10.77333375 10.77333375 0 0 0-8.30933343 12.73600031l14.99733281 74.33599969zM445.86666688 479.78666656a10.73066625 10.73066625 0 0 0 12.59733281-8.50133343l14.99733375-74.33599969c1.17333375-5.856-2.53866656-11.56266656-8.32000031-12.73600032s-11.41333313 2.64533344-12.59733282 8.50133344l-14.99733375 74.33599969a10.77333375 10.77333375 0 0 0 8.32000032 12.73600031zM386.13333312 544.21333344a10.73066625 10.73066625 0 0 0-12.59733281 8.50133343l-14.99733375 74.33599969a10.77333375 10.77333375 0 0 0 8.30933344 12.74666719 10.752 10.752 0 0 0 12.59733375-8.50133344l14.99733281-74.34666656a10.752 10.752 0 0 0-8.30933344-12.73600031zM458.45333375 552.704a10.73066625 10.73066625 0 0 0-12.59733375-8.50133344c-5.77066687 1.16266687-9.49333312 6.88000031-8.30933344 12.73600031l14.99733375 74.34666657c1.18399969 5.856 6.816 9.66400031 12.59733282 8.50133344 5.78133375-1.17333375 9.49333312-6.89066625 8.32000031-12.74666719l-15.00799969-74.33599969z" fill="#ff2727" p-id="5803"></path></svg>