<?xml version="1.0" standalone="no"?><!DOCTYPE svg PUBLIC "-//W3C//DTD SVG 1.1//EN" "http://www.w3.org/Graphics/SVG/1.1/DTD/svg11.dtd"><svg t="1620787040943" class="icon" viewBox="0 0 1024 1024" version="1.1" xmlns="http://www.w3.org/2000/svg" p-id="1093" xmlns:xlink="http://www.w3.org/1999/xlink" width="32" height="32"><defs><style type="text/css"></style></defs><path d="M773.9392 301.8752m-200.0384 0a200.0384 200.0384 0 1 0 400.0768 0 200.0384 200.0384 0 1 0-400.0768 0Z" fill="#5CF4A1" p-id="1094"></path><path d="M924.4672 706.2528a24.32 24.32 0 0 1-24.2688 24.2688h-145.7664a24.3712 24.3712 0 0 0-24.2688 24.32 24.2688 24.2688 0 0 0 24.2688 24.2688h48.5888a24.32 24.32 0 0 1 24.2688 24.32 24.32 24.32 0 0 1-24.2688 24.2688h-64.512A388.7616 388.7616 0 0 1 122.88 390.4512h-48.5888a24.32 24.32 0 0 1 0-48.5888h97.28a24.2688 24.2688 0 0 0 6.8096-47.5648l0.768-0.9728H122.88a24.32 24.32 0 1 1 0-48.5888h101.632a388.7616 388.7616 0 0 1 619.52 437.248h56.32a24.32 24.32 0 0 1 24.1152 24.2688z" fill="#58E000" p-id="1095"></path><path d="M667.136 607.2832c-54.0672 77.2096-147.1488 127.6416-169.728 139.0592a11.3664 11.3664 0 0 1-10.24 0c-22.528-10.6496-114.3296-57.344-168.448-134.0416a11.7248 11.7248 0 0 1 9.6256-18.3808h35.4304a27.136 27.136 0 0 0 19.1488-7.936l11.008-11.008a11.7248 11.7248 0 0 1 18.7392 3.072l24.1664 48.3328A15.36 15.36 0 0 0 450.56 634.88h0.4096a15.36 15.36 0 0 0 13.6704-9.216l27.136-62.464a11.7248 11.7248 0 0 1 21.3504-0.256l5.4272 11.776a15.36 15.36 0 0 0 21.5552 6.8608l19.5072-11.1616a11.776 11.776 0 0 1 13.312 1.1776l13.0048 10.8544a27.136 27.136 0 0 0 17.408 6.2976h54.272a11.7248 11.7248 0 0 1 9.5232 18.5344z" fill="#FFFFFF" p-id="1096"></path><path d="M706.56 493.568a173.0048 173.0048 0 0 1-8.8576 54.272 15.36 15.36 0 0 1-14.4384 10.24h-73.1648a15.36 15.36 0 0 1-9.6768-3.4816l-22.272-18.5344a15.36 15.36 0 0 0-17.4592-1.536l-6.9632 3.9424a15.36 15.36 0 0 1-21.248-6.8096l-16.7424-36.1984A15.36 15.36 0 0 0 501.76 486.4a15.36 15.36 0 0 0-13.9264 9.216l-25.1392 57.856a15.36 15.36 0 0 1-27.4944 0.7168l-11.7248-23.4496a15.36 15.36 0 0 0-24.576-3.9936l-32 32a15.36 15.36 0 0 1-10.752 4.4544H302.4384a15.36 15.36 0 0 1-14.3872-10.24 183.6544 183.6544 0 0 1-9.8304-59.392c0-114.176 124.5696-163.2768 205.6192-100.6592a15.36 15.36 0 0 0 17.7152 0.7168C594.944 331.8784 706.56 378.88 706.56 493.568z" fill="#FFFFFF" p-id="1097"></path></svg>