<?xml version="1.0" standalone="no"?><!DOCTYPE svg PUBLIC "-//W3C//DTD SVG 1.1//EN" "http://www.w3.org/Graphics/SVG/1.1/DTD/svg11.dtd"><svg t="1620176711602" class="icon" viewBox="0 0 1024 1024" version="1.1" xmlns="http://www.w3.org/2000/svg" p-id="2565" width="32" height="32" xmlns:xlink="http://www.w3.org/1999/xlink"><defs><style type="text/css"></style></defs><path d="M506.1632 857.6c0 40.7552-59.5968 73.8304-133.12 73.8304s-133.0176-33.0752-133.0176-73.8304 59.5968-73.728 133.12-73.728 133.12 33.0752 133.0176 73.728z m143.7696-73.728c-73.5232 0-133.12 33.0752-133.12 73.8304s59.5968 73.8304 133.12 73.8304 133.12-33.0752 133.12-73.8304-59.6992-73.8304-133.12-73.8304z m0 0" fill="#FFC716" p-id="2566"></path><path d="M805.7856 503.3984s-10.0352-10.0352-20.7872-20.0704V365.8752c0-97.5872-52.0192-187.8016-136.6016-236.544-84.48-48.8448-188.6208-48.8448-273.2032 0C290.7136 178.0736 238.592 268.288 238.592 365.8752V483.328c-10.9568 10.0352-20.8896 20.0704-20.8896 20.0704-17.7152 27.0336-60.1088 96.0512-60.1088 161.28s17.8176 76.288 24.576 76.8c6.7584 0.512 29.184-5.7344 56.4224-47.8208 36.864 122.88 145.1008 211.8656 272.896 211.8656s236.4416-88.9856 273.2032-211.7632c27.4432 42.2912 50.5856 48.5376 56.832 48.0256 6.2464-0.6144 24.576-11.6736 24.576-76.8s-42.3936-134.2464-60.1088-160.9728l-0.2048-0.6144z m0 0" fill="#37464F" p-id="2567"></path><path d="M310.8864 550.5024c-2.048 15.872-3.072 31.8464-2.9696 47.9232 0 149.1968 92.9792 270.4384 207.5648 270.4384 114.5856 0 207.5648-120.9344 207.5648-270.4384 0-15.9744-1.024-32.0512-3.1744-47.9232H310.8864z m129.1264-332.4928c-30.0032 0-55.0912 33.4848-55.0912 74.752s24.6784 74.752 55.0912 74.752c30.4128 0 55.0912-33.4848 55.0912-74.752s-24.6784-74.752-55.0912-74.752z m9.1136 105.0624c-11.1616 0-20.0704-13.7216-20.0704-30.6176s9.0112-30.6176 20.0704-30.6176 20.0704 13.7216 20.0704 30.6176c-0.1024 16.896-9.1136 30.6176-20.0704 30.6176z m136.192-105.0624c-30.0032 0-55.0912 33.4848-55.0912 74.752s24.6784 74.752 55.0912 74.752c30.4128 0 55.0912-33.4848 55.0912-74.752s-24.6784-74.752-55.0912-74.752z m9.3184 77.5168c0 0.8192-0.7168 1.536-1.536 1.536-0.7168 0-1.2288-0.4096-1.4336-1.1264-2.1504-7.8848-8.8064-13.6192-16.896-14.6432-7.9872 1.1264-14.5408 6.9632-16.4864 14.848-0.2048 0.512-0.7168 0.9216-1.3312 0.9216-0.8192 0-1.536-0.7168-1.536-1.536v-2.4576c0-16.896 9.0112-30.6176 20.0704-30.6176s20.0704 13.7216 20.0704 30.6176v2.56l-0.9216-0.1024z m0 0" fill="#FFFFFF" p-id="2568"></path><path d="M295.5264 535.4496c-5.0176 25.088-15.6672 137.5232-10.6496 162.6112s26.0096 20.7872 56.32 21.0944c30.208 0.3072 63.488 8.2944 64-28.4672s0.6144-109.1584 8.9088-135.8848c8.2944-26.7264-118.5792-19.3536-118.5792-19.3536z m0 0" fill="#FF3A2F" p-id="2569"></path><path d="M288.8704 589.1072L406.528 627.2c0-24.2688 2.56-48.5376 7.68-72.192 8.2944-26.7264-118.5792-19.5584-118.5792-19.5584-1.8432 9.1136-4.4032 30.1056-6.7584 53.6576z m0 0" fill="#DD2C00" p-id="2570"></path><path d="M512.3072 471.3472c91.648 0 166.1952-33.3824 166.1952-53.9648 0-15.6672-74.3424-31.744-165.9904-31.744s-165.9904 14.5408-165.9904 31.744c0 19.5584 74.3424 53.9648 165.9904 53.9648h-0.2048z m0 0" fill="#FFC716" p-id="2571"></path><path d="M513.9456 491.52s105.2672 1.1264 189.3376-34.6112c84.0704-35.6352 83.2512-40.0384 92.4672-40.0384s20.0704 13.2096 24.6784 37.0688c4.608 23.8592 10.0352 42.7008-10.0352 54.3744-20.0704 11.6736-148.2752 87.2448-293.1712 87.2448h-7.168c-144.9984 0-273.6128-75.6736-293.1712-87.2448-19.6608-11.5712-14.2336-30.0032-10.0352-54.3744s15.4624-37.0688 24.6784-37.0688 8.2944 3.9936 92.4672 40.0384S513.3312 491.52 513.3312 491.52h0.6144z m0 0" fill="#FF3A2F" p-id="2572"></path></svg>