<?xml version="1.0" standalone="no"?><!DOCTYPE svg PUBLIC "-//W3C//DTD SVG 1.1//EN" "http://www.w3.org/Graphics/SVG/1.1/DTD/svg11.dtd"><svg t="1620176731074" class="icon" viewBox="0 0 1024 1024" version="1.1" xmlns="http://www.w3.org/2000/svg" p-id="4811" width="32" height="32" xmlns:xlink="http://www.w3.org/1999/xlink"><defs><style type="text/css"></style></defs><path d="M636.58 370.73c9 0 17.93 0 26.9 1.46-25.35-115.12-148.06-200.4-288.71-200.4-157 0-285.69 107.71-285.69 242.32 0 77.78 41.91 143.58 113.65 193l-28.46 85.29 100.2-49.32c35.88 7.5 64.33 14.91 100.21 14.91 9 0 17.93 0 28.46-1.46a201.29 201.29 0 0 1-9-59.85c0.09-124.18 106.34-225.94 242.41-225.94z m-154.1-77.78c22.42 0 35.87 14.91 35.87 35.87s-14.92 35.87-35.87 35.87c-22.42 0-43.38-15-43.38-35.87 0-22.42 22.51-35.87 43.38-35.87z m-197.94 66.88c-22.6 0-43.74-14.82-43.74-35.5 0-22.23 22.6-35.5 43.74-35.5s36.15 14.83 36.15 35.5-15 35.5-36.15 35.5z m0 0" fill="#24DB5A" p-id="4812"></path><path d="M896.92 593.64c0-115.21-113.65-207.91-242.32-207.91-136.17 0-243.87 94.26-243.87 207.91 0 115.21 107.71 207.91 243.87 207.91 28.46 0 56.83-7.5 85.29-14.91L817.68 830l-21-71.83C853.55 714.8 896.92 658 896.92 593.64z m-321.65-35.87c-13.45 0-28.46-13.45-28.46-28.46 0-13.45 14.91-28.46 28.46-28.46 21 0 35.87 14.91 35.87 28.46 0 15-13.45 28.46-35.87 28.46z m162.89-7c-13.54 0-28.65-13.36-28.65-28.09 0-13.36 15.1-28.1 28.65-28.1 21.14 0 36.14 14.83 36.14 28.1 0 14.83-15 28.09-36.14 28.09z m0 0" fill="#24DB5A" p-id="4813"></path></svg>