<?xml version="1.0" standalone="no"?><!DOCTYPE svg PUBLIC "-//W3C//DTD SVG 1.1//EN" "http://www.w3.org/Graphics/SVG/1.1/DTD/svg11.dtd"><svg t="1614778801270" class="icon" viewBox="0 0 1024 1024" version="1.1" xmlns="http://www.w3.org/2000/svg" p-id="1044" width="32" height="32" xmlns:xlink="http://www.w3.org/1999/xlink"><defs><style type="text/css"></style></defs><path d="M550.570667 383.317333H170.666667v-12.629333A201.045333 201.045333 0 0 1 372.736 170.666667h143.701333a238.933333 238.933333 0 0 1 40.618667-85.674667h-184.32a287.061333 287.061333 0 0 0-287.061333 287.061333v40.618667A178.517333 178.517333 0 0 0 0 563.541333v341.333334a56.661333 56.661333 0 0 0 55.637333 55.637333h126.293334A57.002667 57.002667 0 0 0 238.933333 906.24v-30.037333h378.197334V451.925333H614.4a241.664 241.664 0 0 1-63.829333-68.608zM192.853333 790.528a85.674667 85.674667 0 1 1 85.674667-85.674667 86.016 86.016 0 0 1-85.674667 85.674667z" p-id="1045" fill="#8a8a8a"></path><path d="M869.717333 62.122667v196.949333h-130.730666V62.122667A222.208 222.208 0 0 0 584.704 273.066667a216.405333 216.405333 0 0 0 109.226667 188.416v427.690666a72.362667 72.362667 0 0 0 73.045333 72.704h75.093333a72.021333 72.021333 0 0 0 72.704-72.704V460.458667a218.794667 218.794667 0 0 0-45.056-398.336z" p-id="1046" fill="#8a8a8a"></path></svg>