<?xml version="1.0" standalone="no"?><!DOCTYPE svg PUBLIC "-//W3C//DTD SVG 1.1//EN" "http://www.w3.org/Graphics/SVG/1.1/DTD/svg11.dtd"><svg t="1620459384104" class="icon" viewBox="0 0 1024 1024" version="1.1" xmlns="http://www.w3.org/2000/svg" p-id="2080" width="32" height="32" xmlns:xlink="http://www.w3.org/1999/xlink"><defs><style type="text/css"></style></defs><path d="M440.63 879.46s-15.87-1.38-18.63 10.64 27.72 12.56 41.98 4.02c-0.63-10.96-7.24-41.75-22.25-33.79-12.77 6.78-1.1 19.13-1.1 19.13z" fill="#F099F9" p-id="2081"></path><path d="M454.74 182.33s-111.03-88.22-216.21 0S224.93 536 552 596.32c74.65-69.56 224.83-149.31 194.33-388.98C722.89 23.1 488.67 56.79 454.74 182.33z" fill="#6250EA" p-id="2082"></path><path d="M445.09 197.84s-106.87-84.91-208.11 0-13.1 340.42 301.72 398.48c71.85-66.95 216.41-143.71 187.05-374.41C703.19 44.58 477.74 77 445.09 197.84z" fill="#7B62F6" p-id="2083"></path><path d="M219.12 379.68c-1.45 0-2.84-0.84-3.47-2.25-14.11-31.7-21.47-64.19-21.28-93.97 0.19-30.34 8.23-58.11 23.25-80.32a3.798 3.798 0 0 1 5.27-1.02 3.798 3.798 0 0 1 1.02 5.27c-14.18 20.96-21.76 47.28-21.95 76.11-0.18 28.7 6.95 60.11 20.63 90.83 0.85 1.92-0.01 4.16-1.93 5.01-0.5 0.23-1.02 0.34-1.54 0.34zM243.37 423.72c-1.23 0-2.44-0.6-3.17-1.71a326.14 326.14 0 0 1-9.8-15.8 3.795 3.795 0 0 1 1.38-5.19 3.795 3.795 0 0 1 5.19 1.38c3 5.16 6.22 10.35 9.57 15.43 1.16 1.75 0.67 4.11-1.08 5.26-0.64 0.42-1.37 0.63-2.09 0.63zM552 600.12c-0.21 0-0.41-0.02-0.62-0.05-64.71-10.67-124.23-30.62-176.89-59.29-49.64-27.03-91.17-61.22-120.09-98.88a3.796 3.796 0 0 1 0.7-5.33 3.804 3.804 0 0 1 5.33 0.7c28.28 36.82 68.98 70.3 117.7 96.83 51.42 28 109.5 47.56 172.66 58.16 9.64-8.92 19.94-17.79 30.82-27.15 28.67-24.68 61.17-52.65 92.75-91.6a3.796 3.796 0 1 1 5.9 4.78c-32.02 39.48-64.79 67.69-93.7 92.58-11.34 9.76-22.04 18.97-31.97 28.22-0.71 0.67-1.64 1.03-2.59 1.03zM733.22 379.18c-0.4 0-0.8-0.06-1.2-0.2-1.99-0.66-3.06-2.82-2.4-4.81 16.39-49.1 20.75-105.07 12.95-166.35-0.87-6.82-2.05-13.49-3.53-19.83a3.81 3.81 0 0 1 2.84-4.56c2.05-0.48 4.08 0.8 4.56 2.84 1.53 6.59 2.76 13.52 3.66 20.59 7.94 62.43 3.48 119.53-13.28 169.72a3.8 3.8 0 0 1-3.6 2.6zM454.74 186.13c-0.97 0-1.92-0.37-2.64-1.06-0.49-0.47-50.38-47.56-120.16-39.55a3.806 3.806 0 0 1-4.21-3.34 3.806 3.806 0 0 1 3.34-4.21c38.4-4.41 70.67 7.12 90.97 17.57 14.59 7.51 25.13 15.42 30.73 20.04 8.47-26.12 25.78-49.24 50.36-67.16 24.49-17.85 55.13-29.45 86.29-32.65 29.26-3.01 57.55 1.38 81.83 12.69 26.72 12.45 48.08 33.31 61.76 60.31 0.95 1.87 0.2 4.16-1.67 5.1-1.87 0.95-4.16 0.2-5.11-1.67-24.98-49.32-75.83-75.06-136.03-68.87-29.84 3.07-59.17 14.16-82.59 31.24-24.96 18.19-41.98 41.97-49.22 68.76a3.798 3.798 0 0 1-2.65 2.67c-0.32 0.08-0.66 0.13-1 0.13z" fill="#110971" p-id="2084"></path><path d="M544.04 625.8c-1 0-1.98-0.4-2.71-1.13a3.82 3.82 0 0 1-0.97-3.64l5.51-20.78a3.802 3.802 0 0 1 2.63-2.68l8.91-2.54c1.4-0.4 2.91 0.03 3.88 1.12l14.42 16.12a3.798 3.798 0 0 1-1.91 6.22l-28.84 7.21c-0.3 0.06-0.61 0.1-0.92 0.1z m8.63-21.52l-3.31 12.48 16.49-4.12-8.64-9.65-4.54 1.29z" fill="#10086B" p-id="2085"></path><path d="M584.44 965.3c-2.04 0-3.72-1.61-3.79-3.66-4.12-114.92-13.96-249.56-25.07-343.02a3.8 3.8 0 0 1 3.32-4.22 3.794 3.794 0 0 1 4.22 3.32c11.14 93.65 21 228.54 25.12 343.64 0.08 2.1-1.56 3.86-3.66 3.93-0.04 0.01-0.09 0.01-0.14 0.01z" fill="#10086B" p-id="2086"></path><path d="M768.22 471.92s11.51-22.74-4.7-34.01-35.19 33.68-31.01 59.95c16.66 5.61 66.33 14.15 63.46-12.89-2.44-23.01-27.75-13.05-27.75-13.05zM269.05 522.48s-11.08-3.63-15.06 4.48c-3.98 8.11 17.67 13.59 29.27 9.88 1.38-7.92 1.81-30.98-10.23-27.81-10.24 2.68-3.98 13.45-3.98 13.45z" fill="#F099F9" p-id="2087"></path><path d="M274.62 541.77c-8.74 0-18.57-2.53-22.73-7.36-2.35-2.72-2.83-6.04-1.31-9.13 2.79-5.68 8.16-7.37 12.93-7.42-0.28-1.96-0.22-4.15 0.65-6.24 0.89-2.15 2.99-4.99 7.9-6.28 4.78-1.26 8 0.51 9.86 2.21 7.25 6.66 6.06 24.28 5.08 29.93l-0.4 2.26-2.19 0.7c-2.76 0.89-6.18 1.33-9.79 1.33z m-11.08-16.33c-2.3 0-4.9 0.64-6.15 3.19-0.13 0.26-0.17 0.34 0.24 0.82 2.88 3.34 14.26 5.8 22.21 4.33 0.8-7.31 0.11-17.7-3.07-20.62-0.52-0.48-1.22-0.87-2.78-0.46-2.3 0.61-2.69 1.53-2.82 1.84-0.73 1.74 0.47 4.83 1.16 6.05l4.86 8.55-9.32-3.04c-0.17-0.07-2.11-0.66-4.33-0.66zM312.58 60.75s-11.08-3.63-15.06 4.48 17.67 13.59 29.27 9.88c1.38-7.92 1.81-30.98-10.23-27.81-10.23 2.69-3.98 13.45-3.98 13.45z" fill="#F099F9" p-id="2088"></path><path d="M318.15 80.04c-8.73 0-18.57-2.53-22.73-7.35-2.35-2.72-2.83-6.04-1.31-9.13 2.79-5.68 8.16-7.37 12.93-7.42-0.28-1.96-0.22-4.15 0.65-6.24 0.89-2.15 2.99-4.99 7.9-6.28 4.79-1.26 8 0.51 9.86 2.21 7.25 6.66 6.06 24.28 5.08 29.93l-0.4 2.27-2.19 0.7c-2.75 0.88-6.18 1.31-9.79 1.31z m-11.07-16.33c-2.3 0-4.9 0.64-6.15 3.19-0.13 0.26-0.17 0.34 0.24 0.82 2.88 3.34 14.26 5.8 22.21 4.33 0.8-7.31 0.11-17.7-3.07-20.62-0.52-0.48-1.22-0.87-2.78-0.46-2.3 0.6-2.69 1.53-2.82 1.84-0.73 1.74 0.47 4.83 1.16 6.05l4.86 8.55-9.32-3.04c-0.18-0.06-2.12-0.66-4.33-0.66zM664.6 136.26s6.48-19.83-8.03-26.93c-14.51-7.1-24.27 31.62-17.62 52.36 14.17 2.46 55.41 3.19 49.72-18.33-4.84-18.3-24.07-7.1-24.07-7.1zM606.73 159.7s-10.64-7.15-17.27 0.24 14.63 19.65 28.01 19.2c3.83-7.97 11.18-32.24-2.5-32.48-11.64-0.21-8.24 13.04-8.24 13.04z" fill="#F099F9" p-id="2089"></path><path d="M378.83 406.57c-11.58 5.9-23.15 11.81-34.73 17.71-2.61 1.33-5.21 2.66-7.82 3.99 0.43-1-0.5-2.66-2.8-4.98-2.05-7.23-6.5-14.69-9.49-21.58-11.53-26.55-22.57-53.35-33.22-80.34-5.89-14.94-27.44-7.32-21.49 7.76 14.36 36.4 29.33 72.56 45.45 108.07 4.79 10.56 11.88 30.56 23.66 27.92 16.24-3.63 33.53-16.48 48.55-24.14 13.05-6.66 5.09-41.14-8.11-34.41z" fill="#5FD3FA" p-id="2090"></path><path d="M369.95 412.54c-11.58 5.9-23.15 11.81-34.73 17.71-2.61 1.33-5.21 2.66-7.82 3.99 0.43-1-0.5-2.66-2.8-4.98-2.05-7.23-6.5-14.69-9.49-21.58-11.53-26.55-22.57-53.35-33.22-80.34-5.89-14.94-27.44-7.32-21.49 7.76 14.36 36.4 29.33 72.56 45.45 108.07 4.79 10.56 11.18 20.32 22.96 17.68 16.24-3.63 33.53-16.48 48.55-24.14 13.05-6.68 5.79-30.9-7.41-24.17z" fill="#FFFFFF" p-id="2091"></path><path d="M461.16 298.15c-8.35-11.67-22.86-23.11-36.82-20.02-13.05 2.89-18.68 15.29-20.79 28.43-12.82-4.47-26.94-1.48-36.97 9.65-13.33 14.79-11.73 34.95-5.52 53.4 6.82 20.26 23.56 37.71 36.4 45.37 15.95 9.51 46.76 14.8 60.97 2.93 19.66-16.42 25.04-88.58 2.73-119.76z m-13.55 97.16c-0.01 0.02-0.01 0.04-0.03 0.05-14.24 10.91-44.67 1.15-56.54-15.01-6.32-8.61-13.2-24.7-12.34-35.78 1.21-15.62 15.94-17.69 25.68-9.28 6.58 5.68 15.28 8.15 17.8 1.57 1.76-6.36 2.9-11.69 3.01-16.51 0.26-11.11 2.33-21.69 13.28-12.4 6.57 5.57 10.68 14.69 12.46 23.4 4.04 19.72 6.2 48.16-3.32 63.96z" fill="#5FD3FA" p-id="2092"></path><path d="M451.05 294.88c-8.35-11.67-22.86-23.11-36.82-20.02-13.05 2.89-18.68 15.29-20.79 28.43-12.82-4.47-26.94-1.48-36.97 9.65-13.33 14.79-11.73 34.95-5.52 53.4 6.82 20.26 23.56 37.71 36.4 45.37 15.95 9.51 46.76 14.8 60.97 2.93 19.66-16.42 25.04-88.58 2.73-119.76z m-13.55 97.16c-0.01 0.02-0.01 0.04-0.03 0.05-14.24 10.91-44.67 1.15-56.54-15.01-6.32-8.61-13.2-24.7-12.34-35.78 1.21-15.62 15.94-17.69 25.68-9.28 6.58 5.68 15.28 8.15 17.8 1.57 1.76-6.36 2.9-11.69 3.01-16.51 0.26-11.11 2.33-21.69 13.28-12.4 6.57 5.57 10.68 14.69 12.46 23.4 4.04 19.72 6.2 48.15-3.32 63.96z" fill="#FFFFFF" p-id="2093"></path><path d="M559.77 249.71c-4.04 20.28-7.52 40.71-10.3 61.28-1.47 10.86 1.95 22.29 0.29 34.51a864.075 864.075 0 0 0-46.48-70.36c-9.37-12.77-29.41 5.95-20.06 18.7 20.57 28.04 43.87 56.38 60.89 87.2 4.35 7.88 15.05 9.75 19.64 1.18 8.6-16.03 4.14-33.81 6.24-52.01 2.8-24.36 6.72-48.47 11.48-72.4 3.14-15.78-18.54-23.97-21.7-8.1z" fill="#5FD3FA" p-id="2094"></path><path d="M551.24 244.89c-4.04 20.28-7.52 40.71-10.3 61.28-1.47 10.86-1.54 24.01-3.21 36.24a864.075 864.075 0 0 0-46.48-70.36c-9.37-12.77-25.92 4.23-16.57 16.98 20.57 28.04 43.87 56.38 60.89 87.2 4.35 7.88 15.05 9.75 19.64 1.18 8.6-16.03 4.14-33.81 6.24-52.01 2.8-24.36 6.72-48.47 11.48-72.4 3.15-15.78-18.53-23.97-21.69-8.11z" fill="#FFFFFF" p-id="2095"></path><path d="M694.67 303.91c-19.64-1.66-39.07-5.16-58.32-10.09-0.2-0.05-0.38-0.04-0.57-0.08 0.56-9.79 1.16-19.58 1.82-29.37 18.33 2.87 36.71 4.96 55.17 6.23 14.6 1 13.06-24.35-1.43-25.34-20.5-1.41-40.86-3.97-61.18-7.57-4.76-0.84-8.43 1.3-10.74 4.61-1.88 1.55-3.24 4.02-3.5 7.65-2.7 37.67-7.24 77.04-5.65 114.93 0.61 14.56 8.12 17.24 19.98 18.33 18.87 1.74 37.75 3.39 56.62 5.08 14.57 1.31 13.01-24.05-1.43-25.34l-31.14-2.79c-6.14-0.55-14.99 0.29-22.01-0.81-0.61-13.04 1.34-27.51 2.15-40.14 20.39 5.06 40.9 8.3 61.68 10.05 14.56 1.22 13.01-24.13-1.45-25.35z" fill="#5FD3FA" p-id="2096"></path><path d="M687.7 296.62c-19.64-1.66-39.07-5.16-58.32-10.09-0.2-0.05-0.38-0.04-0.57-0.08 0.56-9.79 1.16-19.58 1.82-29.37 18.33 2.87 36.71 4.96 55.17 6.23 14.6 1 13.06-24.35-1.43-25.34-20.5-1.41-40.86-3.97-61.18-7.57-4.76-0.84-8.43 1.3-10.74 4.61-1.88 1.55-3.24 4.02-3.5 7.65-2.7 37.67-7.24 77.04-5.65 114.93 0.61 14.56 8.12 17.24 19.98 18.33 18.87 1.74 37.75 3.39 56.62 5.08 14.57 1.31 13.01-24.05-1.43-25.34l-31.14-2.79c-6.14-0.55-14.99 0.29-22.01-0.81-0.61-13.04 1.34-27.51 2.15-40.14 20.39 5.06 40.9 8.3 61.68 10.05 14.56 1.22 13-24.13-1.45-25.35z" fill="#FFFFFF" p-id="2097"></path><path d="M270.674609 350.337327a7.33 6.56 84.48 1 0 13.059158-1.262055 7.33 6.56 84.48 1 0-13.059158 1.262055Z" fill="#E66832" p-id="2098"></path><path d="M478.131205 283.928717a7.33 6.56 84.48 1 0 13.059158-1.262054 7.33 6.56 84.48 1 0-13.059158 1.262054Z" fill="#E66832" p-id="2099"></path><path d="M499.44228 312.207026a7.33 6.56 84.48 1 0 13.059158-1.262054 7.33 6.56 84.48 1 0-13.059158 1.262054Z" fill="#F6CA8D" p-id="2100"></path><path d="M518.413031 341.206605a7.33 6.56 84.48 1 0 13.059158-1.262055 7.33 6.56 84.48 1 0-13.059158 1.262055Z" fill="#E66832" p-id="2101"></path><path d="M539.974317 369.275289a7.33 6.56 84.48 1 0 13.059159-1.262055 7.33 6.56 84.48 1 0-13.059159 1.262055Z" fill="#F6CA8D" p-id="2102"></path><path d="M545.383273 334.955629a7.33 6.56 84.48 1 0 13.059159-1.262055 7.33 6.56 84.48 1 0-13.059159 1.262055Z" fill="#E66832" p-id="2103"></path><path d="M548.670859 297.315552a7.33 6.56 84.48 1 0 13.059159-1.262055 7.33 6.56 84.48 1 0-13.059159 1.262055Z" fill="#F6CA8D" p-id="2104"></path><path d="M614.878709 243.672956a7.33 6.56 84.48 1 0 13.059159-1.262055 7.33 6.56 84.48 1 0-13.059159 1.262055Z" fill="#F6CA8D" p-id="2105"></path><path d="M610.430995 297.842364a7.33 6.56 84.48 1 0 13.059158-1.262055 7.33 6.56 84.48 1 0-13.059158 1.262055Z" fill="#E66832" p-id="2106"></path><path d="M609.053697 362.722427a7.33 6.56 84.48 1 0 13.059159-1.262055 7.33 6.56 84.48 1 0-13.059159 1.262055Z" fill="#F6CA8D" p-id="2107"></path><path d="M659.154172 367.650282a7.33 6.56 84.48 1 0 13.059159-1.262054 7.33 6.56 84.48 1 0-13.059159 1.262054Z" fill="#E66832" p-id="2108"></path><path d="M663.848868 247.140249a7.33 6.56 84.48 1 0 13.059158-1.262055 7.33 6.56 84.48 1 0-13.059158 1.262055Z" fill="#E66832" p-id="2109"></path><path d="M640.630751 303.531315a7.33 6.56 84.48 1 0 13.059159-1.262055 7.33 6.56 84.48 1 0-13.059159 1.262055Z" fill="#F6CA8D" p-id="2110"></path><path d="M676.761423 310.219258a7.33 6.56 84.48 1 0 13.059159-1.262055 7.33 6.56 84.48 1 0-13.059159 1.262055Z" fill="#E66832" p-id="2111"></path><path d="M553.869187 256.424862a7.33 6.56 84.48 1 0 13.059158-1.262055 7.33 6.56 84.48 1 0-13.059158 1.262055Z" fill="#E66832" p-id="2112"></path><path d="M284.206413 379.396758a7.33 6.56 84.48 1 0 13.059158-1.262055 7.33 6.56 84.48 1 0-13.059158 1.262055Z" fill="#F6CA8D" p-id="2113"></path><path d="M296.937544 410.046222a7.33 6.56 84.48 1 0 13.059159-1.262055 7.33 6.56 84.48 1 0-13.059159 1.262055Z" fill="#E66832" p-id="2114"></path><path d="M315.04873 445.074815a7.33 6.56 84.48 1 0 13.059158-1.262055 7.33 6.56 84.48 1 0-13.059158 1.262055Z" fill="#F6CA8D" p-id="2115"></path><path d="M349.348001 433.773693a7.33 6.56 84.48 1 0 13.059158-1.262055 7.33 6.56 84.48 1 0-13.059158 1.262055Z" fill="#E66832" p-id="2116"></path><path d="M352.564245 349.483777a7.33 6.56 84.48 1 0 13.059158-1.262055 7.33 6.56 84.48 1 0-13.059158 1.262055Z" fill="#F6CA8D" p-id="2117"></path><path d="M370.156314 387.362713a7.33 6.56 84.48 1 0 13.059159-1.262054 7.33 6.56 84.48 1 0-13.059159 1.262054Z" fill="#E66832" p-id="2118"></path><path d="M396.566327 405.950977a7.33 6.56 84.48 1 0 13.059159-1.262055 7.33 6.56 84.48 1 0-13.059159 1.262055Z" fill="#F6CA8D" p-id="2119"></path><path d="M436.396349 404.319434a7.33 6.56 84.48 1 0 13.059159-1.262055 7.33 6.56 84.48 1 0-13.059159 1.262055Z" fill="#E66832" p-id="2120"></path><path d="M447.95454 367.019906a7.33 6.56 84.48 1 0 13.059158-1.262054 7.33 6.56 84.48 1 0-13.059158 1.262054Z" fill="#F6CA8D" p-id="2121"></path><path d="M445.282698 324.769706a7.33 6.56 84.48 1 0 13.059159-1.262055 7.33 6.56 84.48 1 0-13.059159 1.262055Z" fill="#E66832" p-id="2122"></path><path d="M416.521499 289.700824a7.33 6.56 84.48 1 0 13.059158-1.262055 7.33 6.56 84.48 1 0-13.059158 1.262055Z" fill="#F6CA8D" p-id="2123"></path><path d="M364.892788 318.233558a7.33 6.56 84.48 1 0 13.059158-1.262055 7.33 6.56 84.48 1 0-13.059158 1.262055Z" fill="#E66832" p-id="2124"></path><path d="M397.833002 318.492005a7.33 6.56 84.48 1 0 13.059159-1.262055 7.33 6.56 84.48 1 0-13.059159 1.262055Z" fill="#E66832" p-id="2125"></path><path d="M302.414949 203.979413a17.06 24.78 56.022 1 0 41.097741-27.697822 17.06 24.78 56.022 1 0-41.097741 27.697822Z" fill="#FFFFFF" p-id="2126"></path><path d="M240.699384 237.104957a10.04 12.39 56.022 1 0 20.548871-13.848911 10.04 12.39 56.022 1 0-20.548871 13.848911Z" fill="#FFFFFF" p-id="2127"></path><path d="M787.18 573.29s5.47-53.26-59.97-61.4c-86.49-10.75-141.99 113.03-60.94 239.62 48.82 4.3 133.84 35.19 201.1-58.64 51.97-72.49-24.47-147.81-80.19-119.58z" fill="#6250EA" p-id="2128"></path><path d="M772.37 576.86s5.12-49.85-56.13-57.46c-80.95-10.07-132.9 105.79-57.04 224.27 45.69 4.02 125.27 32.94 188.22-54.88 48.64-67.86-22.9-138.35-75.05-111.93z" fill="#7B62F6" p-id="2129"></path><path d="M861.27 592.06c-0.96 0-1.92-0.36-2.66-1.08-20.29-19.86-47.66-25.47-69.71-14.3-1.24 0.63-2.72 0.53-3.87-0.26a3.802 3.802 0 0 1-1.63-3.52c0.01-0.16 1.51-16.75-8.69-31.95a3.8 3.8 0 0 1 6.31-4.23c7.77 11.58 9.65 23.62 10 30.7 23.9-9.21 51.9-2.44 72.9 18.12 1.5 1.47 1.53 3.87 0.06 5.37-0.74 0.77-1.73 1.15-2.71 1.15zM666.07 532.34c-1.1 0-2.2-0.48-2.95-1.4a3.793 3.793 0 0 1 0.54-5.34c17.88-14.57 39.5-20.82 62.53-18.08 16.73 1.99 30.52 7.08 40.99 15.12a3.804 3.804 0 0 1 0.7 5.33 3.813 3.813 0 0 1-5.33 0.7c-9.37-7.2-21.91-11.77-37.26-13.6-20.94-2.5-40.59 3.19-56.83 16.43-0.69 0.56-1.54 0.84-2.39 0.84zM627.81 650.88c-1.92 0-3.57-1.45-3.77-3.41-3.21-30.99 1.12-60.16 12.52-84.36a3.796 3.796 0 0 1 6.87 3.23c-10.81 22.94-14.9 50.72-11.83 80.34 0.22 2.09-1.3 3.95-3.39 4.17-0.14 0.02-0.27 0.03-0.4 0.03zM742.82 763.61c-19.18 0-37.29-2.75-53.34-5.18-8.47-1.28-16.47-2.5-23.54-3.12-1.17-0.1-2.23-0.74-2.87-1.74-18.01-28.13-30.14-57.24-36.04-86.5-0.42-2.06 0.92-4.06 2.97-4.47 2.05-0.41 4.06 0.92 4.47 2.97 5.61 27.8 17.05 55.5 34 82.35 6.82 0.68 14.28 1.81 22.14 3 29.57 4.49 66.37 10.07 102.99-3.27a3.8 3.8 0 0 1 2.6 7.14c-18.15 6.61-36.19 8.82-53.38 8.82zM814.47 746.01c-1.33 0-2.62-0.7-3.31-1.94a3.793 3.793 0 0 1 1.45-5.17c16.24-9.14 31.32-22.32 44.81-39.16 1.31-1.64 3.7-1.9 5.34-0.59 1.64 1.31 1.9 3.7 0.59 5.34-14.1 17.61-29.92 31.42-47.01 41.04-0.6 0.32-1.24 0.48-1.87 0.48zM871.06 691.17c-0.69 0-1.39-0.19-2.02-0.58a3.805 3.805 0 0 1-1.2-5.24c6.83-10.88 11.03-22.2 12.46-33.63a3.787 3.787 0 0 1 4.24-3.29c2.08 0.26 3.56 2.16 3.29 4.24-1.58 12.54-6.14 24.9-13.57 36.73a3.739 3.739 0 0 1-3.2 1.77z" fill="#110971" p-id="2130"></path><path d="M664.04 776.32c-0.7 0-1.4-0.2-2.02-0.58l-18-11.3a3.809 3.809 0 0 1-1.78-3.32c0.04-1.34 0.78-2.57 1.96-3.22l13.45-7.45c1.17-0.65 2.59-0.63 3.75 0.04l5.72 3.33c1.26 0.73 1.99 2.12 1.88 3.57l-1.17 15.42c-0.1 1.33-0.89 2.5-2.08 3.1-0.54 0.28-1.12 0.41-1.71 0.41z m-10.53-14.89l7.22 4.53 0.51-6.77-1.8-1.05-5.93 3.29z" fill="#10086B" p-id="2131"></path><path d="M600.43 909.77a3.806 3.806 0 0 1-3.71-4.66c13.94-60.29 24.92-80.42 51.46-129.05l5.37-9.84a3.8 3.8 0 0 1 5.15-1.52 3.8 3.8 0 0 1 1.52 5.15c-1.86 3.42-3.65 6.69-5.37 9.85-26.94 49.38-37.03 67.85-50.73 127.13a3.788 3.788 0 0 1-3.69 2.94z" fill="#10086B" p-id="2132"></path><path d="M705.71 693.72s3.86-7.48-1.59-11.34c-5.45-3.85-11.81 10.96-10.4 19.73 5.6 1.97 22.29 5.14 21.32-3.87-0.83-7.67-9.33-4.52-9.33-4.52z" fill="#F7D050" p-id="2133"></path><path d="M861.77 610.44l2.37 12.02s23.38 5.11 36.16-7.48l-0.35-9.37s-18.77 12.39-38.18 4.83zM703.78 793.69l4.47 11.4s23.92 0.87 34.25-13.79l-2.01-9.16s-16.26 15.53-36.71 11.55z" fill="#F099F9" p-id="2134"></path><path d="M694.357163 549.525581a10.27 11.82 58.136 1 0 20.077536-12.479669 10.27 11.82 58.136 1 0-20.077536 12.479669Z" fill="#FFFFFF" p-id="2135"></path><path d="M672.641746 554.8253a6.04 5.91 63.624 1 0 10.589513-5.251152 6.04 5.91 63.624 1 0-10.589513 5.251152Z" fill="#FFFFFF" p-id="2136"></path><path d="M810.41 691.67l-16.99-4.92c-0.59-2.19-1.18-4.38-1.76-6.56-0.24-2-0.18-3.92 0.12-5.76 1.22 0.09 2.51 0.07 3.99-0.16 8.5-1.31 24.71-12.79 21.46-22.88-0.32-0.99-1.29-1.61-2.26-1.79-11.5-2.22-21.68 6.03-26.37 16.28-8.25-2.28-15.4-9.46-24.53-6.99-3.77 1.02-7.06 5.22-11.05 4.85-4.96-0.46-3.09-2.05-3.41-7.52-0.15-2.58-0.12-5.24-0.82-7.76-1.5-5.42-4.88-8.92-9.09-11.6-0.26-0.3-0.59-0.57-1-0.76-0.56-0.26-1.12-0.52-1.68-0.79-1.77-0.94-3.64-1.78-5.54-2.6-3.4-1.46-5.57 3.72-2.23 5.28 1.48 0.63 2.79 1.36 3.98 2.14a14.287 14.287 0 0 1-4.45 3.54c-5.24 5.86-6.85 3.81-4.84-6.17 1.98-2.52-1.4-6.06-3.98-4.05-18.71 14.57-42.78-2.88-34-25.01 5.16-13.01 18.03-23.08 28.13-32.2 2.72-2.45-0.69-7.07-3.43-4.59-14.9 13.45-39.88 32.66-31.1 55.68 5.81 15.21 21.53 20.45 35.2 15.48-1.02 3.94-0.34 7.83 4.48 9.9 6.56 2.82 13.74-3.48 18.14-8.92 4.48 5.06 6 11.75 6.71 19.05 0.37 3.78 0.67 6.17 2.96 9.06 0.6 0.75 1.63 1.32 2.62 1.13 2.49-0.46 4.09-1.89 6.46-2.81 7.81-3.05 15.07-4.36 22.89-0.76 2.76 1.27 4.98 2.6 7.26 3.58-0.36 1.98-0.52 3.96-0.42 5.89 0.89 16.89 13.19 25.87 27.97 17.32 3.2-1.83-0.26-6.41-3.42-4.58z m-2.12-31.96c-1.17 5.68-8.2 7.03-13.56 6.99 1.53-2.42 3.52-4.57 5.88-6.4 3.22-2.49 8.71-5.62 7.68-0.59z" fill="#FFFFFF" p-id="2137"></path><path d="M283.96 608.29s-77.56-26.44-106.47 49.3c-33.73 88.38 104.88 206.99 280.7 150.09 20.34-56.72 57.08-136.13-1.09-243.71-53.01-98.03-189.33-30.75-173.14 44.32z" fill="#6250EA" p-id="2138"></path><path d="M283.07 633.58s-70.9-24.17-97.33 45.07c-30.83 80.79 95.88 189.23 256.62 137.21 18.59-51.85 52.18-124.45-1-222.8-48.47-89.62-173.09-28.12-158.29 40.52z" fill="#7B62F6" p-id="2139"></path><path d="M535.16 948.59a3.8 3.8 0 0 1-3.74-3.13c-9.22-51.68-27.45-88.19-59.11-118.39a3.794 3.794 0 0 1-0.13-5.37 3.794 3.794 0 0 1 5.37-0.13c32.91 31.38 51.83 69.18 61.35 122.55a3.801 3.801 0 0 1-3.74 4.47z" fill="#10086B" p-id="2140"></path><path d="M214.26 771.76c-0.92 0-1.84-0.33-2.56-1-11.17-10.24-20.42-21.39-27.49-33.16-1.08-1.8-0.5-4.13 1.3-5.21s4.13-0.5 5.21 1.3c6.69 11.14 15.48 21.73 26.11 31.47a3.797 3.797 0 0 1 0.23 5.37c-0.75 0.82-1.78 1.23-2.8 1.23zM367 826.34c-55.59 0-107.37-16.86-145.89-47.54a3.81 3.81 0 0 1-0.61-5.34 3.81 3.81 0 0 1 5.34-0.61c37.18 29.61 87.28 45.89 141.16 45.89h0.97c2.09 0 3.79 1.69 3.8 3.79 0.01 2.1-1.69 3.8-3.78 3.81H367zM430.05 819.19c-1.74 0-3.31-1.2-3.7-2.97-0.46-2.05 0.83-4.08 2.87-4.54 8.64-1.94 17.39-4.31 26.04-7.06l0.74-2.07c11.01-30.63 23.49-65.35 25.26-108.16 0.09-2.1 1.88-3.76 3.95-3.64 2.1 0.09 3.73 1.86 3.64 3.95-1.82 43.97-14.51 79.27-25.7 110.41l-1.37 3.83a3.798 3.798 0 0 1-2.41 2.33c-9.44 3.05-19.02 5.68-28.48 7.81-0.28 0.08-0.56 0.11-0.84 0.11zM484.66 670.66a3.8 3.8 0 0 1-3.79-3.53l-0.32-4.65c-1.95-28.68-4.37-64.38-26.57-96.33-15.63-22.5-35.76-37.57-58.21-43.6-19.5-5.23-40.73-3.55-59.78 4.72-35.32 15.34-55.19 48.33-48.31 80.23a3.804 3.804 0 0 1-4.94 4.4c-0.17-0.06-17.77-5.92-38.7-3.8-27.58 2.78-47.75 17.47-59.96 43.67a3.81 3.81 0 0 1-5.05 1.84c-1.9-0.89-2.73-3.15-1.84-5.05 16.77-35.99 45.34-45.99 66.36-48.05 15.13-1.48 28.38 0.81 35.67 2.54-4.11-33.51 17.24-66.9 53.73-82.75 20.62-8.96 43.63-10.77 64.78-5.09 24.21 6.5 45.82 22.61 62.49 46.6 23.4 33.68 25.9 70.54 27.91 100.15l0.32 4.64a3.789 3.789 0 0 1-3.52 4.05c-0.09 0.01-0.18 0.01-0.27 0.01z" fill="#110971" p-id="2141"></path><path d="M463.82 837.73a3.79 3.79 0 0 1-3.71-3.01l-3.99-18.84c-0.28-1.31 0.15-2.67 1.14-3.58l6.09-5.63a3.793 3.793 0 0 1 3.96-0.75l18.04 7.05c1.24 0.49 2.13 1.58 2.36 2.89 0.23 1.31-0.25 2.65-1.26 3.52l-20.13 17.42c-0.71 0.61-1.6 0.93-2.5 0.93z m0.18-21.31l2.21 10.43 10.51-9.09-9.96-3.89-2.76 2.55z" fill="#10086B" p-id="2142"></path><path d="M373.99 749.69s-14.74 3.84-13.38 15.56 29.01 2.45 39.14-9.82c-4.08-9.68-19.9-35.32-30.88-23.34-9.35 10.2 5.12 17.6 5.12 17.6z" fill="#F7D050" p-id="2143"></path><path d="M333.51723 555.183366a9.51 13.82 83.448 1 0 27.459475-3.15386 9.51 13.82 83.448 1 0-27.459475 3.15386Z" fill="#FFFFFF" p-id="2144"></path><path d="M386.312128 553.063411a5.6 6.91 83.448 1 0 13.729738-1.57693 5.6 6.91 83.448 1 0-13.729738 1.57693Z" fill="#FFFFFF" p-id="2145"></path><path d="M437.91 650.49c-5.63 5.37-11.27 10.74-16.9 16.12-2.89-0.78-5.77-1.57-8.66-2.35-2.43-1.06-4.59-2.4-6.49-3.97 0.91-1.33 1.75-2.82 2.48-4.66 4.15-10.56 1.83-36.68-11.84-39.69-1.34-0.29-2.69 0.41-3.55 1.39-10.18 11.64-7.53 28.73 1.04 40.89-8.08 7.89-21.02 11.28-24.28 23.33-1.34 4.97 1.25 11.52-1.82 15.83-3.82 5.36-4.4 2.16-10.85-1.11-3.04-1.54-6.06-3.34-9.4-4.22-7.18-1.89-13.42-0.37-19.27 2.65-0.52 0.1-1.03 0.29-1.53 0.63-0.67 0.46-1.34 0.93-2.01 1.39-2.25 1.4-4.45 2.96-6.64 4.59-3.92 2.91 0.54 8.83 4.54 6.06 1.7-1.27 3.4-2.28 5.09-3.12 0.82 2.34 1.22 4.8 1.08 7.43 3.21 9.87-0.21 10.34-10.25 1.42-1.56-3.93-7.85-2.43-7.27 1.85 4.19 31.03-31.72 46.88-51.12 22.16-11.41-14.54-14.35-35.9-18.03-53.49-0.99-4.73-8.52-3.91-7.52 0.86 5.43 25.93 10.74 67.2 42.84 72.48 21.21 3.49 37.63-10.96 41.06-29.86 3.81 3.78 8.7 5.59 14.27 1.47 7.58-5.61 5.16-17.98 1.88-26.62 8.75-1.74 17.4 0.97 26.19 5.01 4.56 2.09 7.49 3.34 12.3 2.65 1.26-0.18 2.58-0.98 3.03-2.24 1.13-3.15 0.57-5.92 1.09-9.24 1.71-10.93 5.04-20.09 14.35-26.61 3.29-2.3 6.27-3.95 8.91-5.91 2.02 1.73 4.17 3.23 6.44 4.4 19.86 10.21 38.27 2.15 38.35-20.4 0.02-4.85-7.5-3.94-7.51 0.88z m-37.86-18.82c5.7 5.11 2.57 14.02-1.04 20.11-1.74-3.35-2.88-7.06-3.39-10.95-0.7-5.35-0.61-13.69 4.43-9.16z" fill="#F099F9" p-id="2146"></path><path d="M193.08 676.94l-13.65-7.38s-23.85 18.71-21.86 41.34l9.44 7.22s3.02-28.33 26.07-41.18z" fill="#FFFFFF" p-id="2147"></path><path d="M822.57 111.75c0 29.11 4.56 37.45 14.85 27.16-10.29 10.29-1.95 14.85 27.16 14.85-29.11 0-37.45 4.56-27.16 14.85-10.29-10.29-14.85-1.95-14.85 27.16 0-29.11-4.56-37.45-14.85-27.16 10.29-10.29 1.95-14.85-27.16-14.85 29.11 0 37.45-4.56 27.16-14.85 10.28 10.3 14.85 1.95 14.85-27.16z" fill="#FFFFFF" p-id="2148"></path><path d="M416.5 431.39c0 15.87 2.49 20.42 8.1 14.81-5.61 5.61-1.06 8.1 14.81 8.1-15.87 0-20.42 2.49-14.81 8.1-5.61-5.61-8.1-1.06-8.1 14.81 0-15.87-2.49-20.42-8.1-14.81 5.61-5.61 1.06-8.1-14.81-8.1 15.87 0 20.42-2.49 14.81-8.1 5.61 5.61 8.1 1.06 8.1-14.81z" fill="#FFFFFF" p-id="2149"></path><path d="M243.37 646.88c0 15.87 2.49 20.42 8.1 14.81-5.61 5.61-1.06 8.1 14.81 8.1-15.87 0-20.42 2.49-14.81 8.1-5.61-5.61-8.1-1.06-8.1 14.81 0-15.87-2.49-20.42-8.1-14.81 5.61-5.61 1.06-8.1-14.81-8.1 15.87 0 20.42-2.49 14.81-8.1 5.61 5.61 8.1 1.06 8.1-14.81z" fill="#FFFFFF" p-id="2150"></path><path d="M736.18 558.58c0 17.93 2.81 23.07 9.15 16.73-6.34 6.34-1.2 9.15 16.73 9.15-17.93 0-23.07 2.81-16.73 9.15-6.34-6.34-9.15-1.2-9.15 16.73 0-17.93-2.81-23.07-9.15-16.73 6.34-6.34 1.2-9.15-16.73-9.15 17.93 0 23.07-2.81 16.73-9.15 6.34 6.34 9.15 1.2 9.15-16.73z" fill="#FFFFFF" p-id="2151"></path><path d="M743.35 697.5c0 14.92 2.34 19.19 7.61 13.92-5.27 5.27-1 7.61 13.92 7.61-14.92 0-19.19 2.34-13.92 7.61-5.27-5.27-7.61-1-7.61 13.92 0-14.92-2.34-19.19-7.61-13.92 5.27-5.27 1-7.61-13.92-7.61 14.92 0 19.19-2.34 13.92-7.61 5.27 5.28 7.61 1 7.61-13.92z" fill="#FFFFFF" p-id="2152"></path><path d="M371.41 624.17c0 15.87 2.49 20.42 8.1 14.81-5.61 5.61-1.06 8.1 14.81 8.1-15.87 0-20.42 2.49-14.81 8.1-5.61-5.61-8.1-1.06-8.1 14.81 0-15.87-2.49-20.42-8.1-14.81 5.61-5.61 1.06-8.1-14.81-8.1 15.87 0 20.42-2.49 14.81-8.1 5.61 5.61 8.1 1.06 8.1-14.81z" fill="#FFFFFF" p-id="2153"></path><path d="M430.05 712.74c0 15.87 2.49 20.42 8.1 14.81-5.61 5.61-1.06 8.1 14.81 8.1-15.87 0-20.42 2.49-14.81 8.1-5.61-5.61-8.1-1.06-8.1 14.81 0-15.87-2.49-20.42-8.1-14.81 5.61-5.61 1.06-8.1-14.81-8.1 15.87 0 20.42-2.49 14.81-8.1 5.62 5.61 8.1 1.06 8.1-14.81z" fill="#FFFFFF" p-id="2154"></path><path d="M524.93 182.36c0 15.87 2.49 20.42 8.1 14.81-5.61 5.61-1.06 8.1 14.81 8.1-15.87 0-20.42 2.49-14.81 8.1-5.61-5.61-8.1-1.06-8.1 14.81 0-15.87-2.49-20.42-8.1-14.81 5.61-5.61 1.06-8.1-14.81-8.1 15.87 0 20.42-2.49 14.81-8.1 5.61 5.61 8.1 1.06 8.1-14.81z" fill="#FFFFFF" p-id="2155"></path><path d="M551.9 455c0 29.11 4.56 37.45 14.85 27.16-10.29 10.29-1.95 14.85 27.16 14.85-29.11 0-37.45 4.56-27.16 14.85-10.29-10.29-14.85-1.95-14.85 27.16 0-29.11-4.56-37.45-14.85-27.16 10.29-10.29 1.95-14.85-27.16-14.85 29.11 0 37.45-4.56 27.16-14.85 10.29 10.3 14.85 1.95 14.85-27.16z" fill="#FFFFFF" p-id="2156"></path><path d="M516.58 714.6c0 22.54 3.53 29 11.5 21.03-7.97 7.97-1.51 11.5 21.03 11.5-22.54 0-29 3.53-21.03 11.5-7.97-7.97-11.5-1.51-11.5 21.03 0-22.54-3.53-29-11.5-21.03 7.97-7.97 1.51-11.5-21.03-11.5 22.54 0 29-3.53 21.03-11.5 7.97 7.97 11.5 1.51 11.5-21.03zM172.41 497.02c0 22.54 3.53 29 11.5 21.03-7.97 7.97-1.51 11.5 21.03 11.5-22.54 0-29 3.53-21.03 11.5-7.97-7.97-11.5-1.51-11.5 21.03 0-22.54-3.53-29-11.5-21.03 7.97-7.97 1.51-11.5-21.03-11.5 22.54 0 29-3.53 21.03-11.5 7.97 7.97 11.5 1.51 11.5-21.03zM674.22 768.49c0 14.79 2.32 19.03 7.55 13.8-5.23 5.23-0.99 7.55 13.8 7.55-14.79 0-19.03 2.32-13.8 7.55-5.23-5.23-7.55-0.99-7.55 13.8 0-14.79-2.32-19.03-7.55-13.8 5.23-5.23 0.99-7.55-13.8-7.55 14.79 0 19.03-2.32 13.8-7.55 5.23 5.23 7.55 0.99 7.55-13.8zM417.59 58.85c0 22.35 3.5 28.75 11.4 20.85-7.9 7.9-1.5 11.4 20.85 11.4-22.35 0-28.75 3.5-20.85 11.4-7.9-7.9-11.4-1.5-11.4 20.85 0-22.35-3.5-28.75-11.4-20.85 7.9-7.9 1.5-11.4-20.85-11.4 22.35 0 28.75-3.5 20.85-11.4 7.9 7.9 11.4 1.5 11.4-20.85z" fill="#F099F9" p-id="2157"></path></svg>