<?xml version="1.0" standalone="no"?><!DOCTYPE svg PUBLIC "-//W3C//DTD SVG 1.1//EN" "http://www.w3.org/Graphics/SVG/1.1/DTD/svg11.dtd"><svg t="1614778845717" class="icon" viewBox="0 0 1024 1024" version="1.1" xmlns="http://www.w3.org/2000/svg" p-id="1696" width="32" height="32" xmlns:xlink="http://www.w3.org/1999/xlink"><defs><style type="text/css"></style></defs><path d="M433.84118 634.912424a54.950087 54.950087 0 0 0-58.363137 17.065245c-15.017415 18.430464-9.897842 39.250062-10.921756 58.021831v29.693526a53.243563 53.243563 0 0 0 50.171819 53.584868 48.465295 48.465295 0 0 0 53.584868-38.567453 416.733272 416.733272 0 0 0 0-82.595784 42.321807 42.321807 0 0 0-34.471794-37.202233z" p-id="1697" fill="#8a8a8a"></path><path d="M644.426298 609.997167c-25.939172-11.945671-53.584868-19.795684-81.230564-29.693526a605.816182 605.816182 0 0 1 0 166.556787 102.391467 102.391467 0 0 1-79.52404 75.428381h-136.521956A102.391467 102.391467 0 0 1 273.086576 746.860428 605.816182 605.816182 0 0 1 273.086576 580.303641c-27.645696 9.897842-55.291392 17.747854-81.571869 29.693526A375.43538 375.43538 0 0 0 68.303641 694.982085a226.285143 226.285143 0 0 0-65.871844 160.754604c0 32.423965 0 64.847929 3.754354 96.930589A98.295809 98.295809 0 0 0 56.35797 1024h723.225065a98.295809 98.295809 0 0 0 50.171819-71.332722c3.071744-32.08266 3.071744-64.506624 3.754354-96.930589a227.650362 227.650362 0 0 0-68.260979-160.754604 373.046246 373.046246 0 0 0-120.821931-84.984918z" p-id="1698" fill="#8a8a8a"></path><path d="M208.921257 317.498875a261.098242 208.878593 90 1 0 417.757186 0 261.098242 208.878593 90 1 0-417.757186 0Z" p-id="1699" fill="#8a8a8a"></path><path d="M955.696359 658.803766a369.974502 369.974502 0 0 0-122.187151-84.984918c-24.915257-11.263061-51.195734-19.113074-77.476211-28.66961a477.826848 477.826848 0 0 1 68.260979 59.728356 355.639697 355.639697 0 0 1 102.391467 252.906924v6.826098c0 32.08266 0 65.189234-4.095659 100.002333 0 7.850012-2.047829 15.35872-3.413049 23.208733h49.830514a98.978418 98.978418 0 0 0 50.171819-71.332723c3.071744-32.08266 3.413049-64.506624 3.754354-96.930589A224.919923 224.919923 0 0 0 955.696359 658.803766zM718.830764 317.498875A440.28331 440.28331 0 0 1 682.652446 496.342638v4.095659l4.778268 2.389134c132.084993-106.145821 145.395884-154.952421 155.635031-257.002583C855.011416 102.476794 750.913424 0.085326 652.27631 0.085326a499.670361 499.670361 0 0 0-68.260978 3.413049 415.368053 415.368053 0 0 1 134.815432 314.0005z" p-id="1700" fill="#8a8a8a"></path></svg>