<?xml version="1.0" standalone="no"?><!DOCTYPE svg PUBLIC "-//W3C//DTD SVG 1.1//EN" "http://www.w3.org/Graphics/SVG/1.1/DTD/svg11.dtd"><svg t="1618570426280" class="icon" viewBox="0 0 1024 1024" version="1.1" xmlns="http://www.w3.org/2000/svg" p-id="13468" width="16" height="16" xmlns:xlink="http://www.w3.org/1999/xlink"><defs><style type="text/css"></style></defs><path d="M945.170405 900.204758 78.814536 900.204758C35.363137 900.204758 0 864.841621 0 821.390222L0 326.344784c0-43.432993 35.363137-78.779399 78.814536-78.779399l44.97234 0 0-14.026458c0-26.411503 21.455477-47.883712 47.850248-47.883712l92.805856 0c26.413176 0 47.883712 21.488941 47.883712 47.883712l0 14.009725 109.675085 0 54.109699-86.563137c14.433046-23.214013 39.388863-37.088209 66.782536-37.088209l216.627869-0.102065c28.951425 0 55.498458 15.786667 69.304052 41.200941l51.606588 82.569203 64.752941 0c43.451399 0 78.814536 35.346405 78.814536 78.779399l0 495.045438C1024 864.841621 988.636863 900.204758 945.170405 900.204758zM78.814536 281.389176c-24.805229 0-44.974013 20.168784-44.974013 44.955608l0 495.045438c0 24.805229 20.168784 44.974013 44.974013 44.974013l866.355869 0c24.803556 0 44.974013-20.168784 44.974013-44.974013L990.144418 326.344784c0-24.786824-20.170458-44.938876-44.974013-44.938876l-74.127895 0c-5.836131 0-11.252288-3.011765-14.347712-7.952732l-57.104732-91.402039c-8.376052-15.413542-23.552-24.415373-40.06651-24.415373l-216.592732 0.102065c-15.617673 0-29.848261 7.917595-38.070379 21.150954l-59.100863 94.566065c-3.097098 4.940967-8.509908 7.952732-14.347712 7.952732l-135.986196 0c-9.356549 0-16.921098-7.562876-16.921098-16.919425l0-30.947556c0-7.748601-6.294588-14.04319-14.04319-14.04319L171.653856 219.497412c-7.731869 0-14.009725 6.294588-14.009725 14.04319l0 30.92915c0 9.356549-7.562876 16.921098-16.919425 16.921098L78.814536 281.39085zM651.21715 807.363765c-137.289621 0-248.977569-111.689621-248.977569-248.979242 0-137.287948 111.687948-248.977569 248.977569-248.977569s248.979242 111.687948 248.979242 248.977569C900.196392 695.692549 788.525176 807.363765 651.21715 807.363765zM651.21715 343.264209c-118.625046 0-215.137046 96.512-215.137046 215.138719 0 118.625046 96.512 215.137046 215.137046 215.137046 118.626719 0 215.138719-96.512 215.138719-215.137046C866.355869 439.776209 769.845542 343.264209 651.21715 343.264209zM295.845647 425.59749 109.726954 425.59749c-9.356549 0-16.919425-7.564549-16.919425-16.919425 0-9.356549 7.562876-16.919425 16.919425-16.919425l186.120366 0c9.356549 0 16.919425 7.562876 16.919425 16.919425C312.766745 418.034614 305.203869 425.59749 295.845647 425.59749z" p-id="13469"></path></svg>