<?xml version="1.0" standalone="no"?><!DOCTYPE svg PUBLIC "-//W3C//DTD SVG 1.1//EN" "http://www.w3.org/Graphics/SVG/1.1/DTD/svg11.dtd"><svg t="1618569023872" class="icon" viewBox="0 0 1024 1024" version="1.1" xmlns="http://www.w3.org/2000/svg" p-id="11698" width="32" height="32" xmlns:xlink="http://www.w3.org/1999/xlink"><defs><style type="text/css"></style></defs><path d="M392.41 693.94a15.11 15.11 0 0 1-3.74-0.48c-52.4-13.46-98.09-45.2-132.13-91.79-25.57-35-35.64-66-36.05-67.32a15 15 0 0 1 28.57-9.16c0.1 0.32 9.35 28.44 32.31 59.6 30.24 41 68.85 67.82 114.76 79.61a15 15 0 0 1-3.72 29.54z" fill="#FF4339" p-id="11699"></path><path d="M336.76 904.58a36 36 0 0 1-15.41-3.26c-5.32-2.45-17.49-10.36-15.71-30.78a104.42 104.42 0 0 1 3.26-17c2.88-11.09 7.43-25.05 11.84-38.54 3-9.17 6.95-21.27 9.58-30.5C266 754.34 211.78 713.94 172.65 667c-22.79-27.36-40.44-56.88-52.46-87.76a280.11 280.11 0 0 1-19.19-102c0-46.71 10.9-92 32.39-134.56C154 301.86 183.33 265.33 220.66 234c75.88-63.59 176.51-98.62 283.34-98.62s207.46 35 283.34 98.62c37.33 31.29 66.7 67.82 87.27 108.59C896.1 385.21 907 430.48 907 477.19s-10.9 92-32.39 134.57c-20.57 40.77-49.94 77.3-87.27 108.58-75.18 63-174.65 98-280.38 98.61-8.09 3.4-30.83 17.26-47.71 27.55-22.35 13.62-47.67 29.06-69.67 40.35-23.5 12.08-39.91 17.73-52.82 17.73zM504 185.42c-194.64 0-353 130.89-353 291.77C151 534 171.21 587.12 211.07 635c37.45 45 91.29 83.39 155.69 111.14 4.24 1.86 18.12 9.49 16.24 30.75a103.27 103.27 0 0 1-3.18 16.33c-2.79 10.66-7.22 24.22-11.5 37.34-1.27 3.87-2.76 8.46-4.28 13.21 2.9-1.45 6.08-3.1 9.57-5 18.86-10.11 40.54-23.33 59.66-35C476.64 777.34 491 769 504 769c194.64 0 353-130.88 353-291.77S698.64 185.42 504 185.42z" p-id="11700"></path></svg>