<?xml version="1.0" standalone="no"?><!DOCTYPE svg PUBLIC "-//W3C//DTD SVG 1.1//EN" "http://www.w3.org/Graphics/SVG/1.1/DTD/svg11.dtd"><svg t="1614778828493" class="icon" viewBox="0 0 1024 1024" version="1.1" xmlns="http://www.w3.org/2000/svg" p-id="1409" width="32" height="32" xmlns:xlink="http://www.w3.org/1999/xlink"><defs><style type="text/css"></style></defs><path d="M290.133333 211.626667a65.536 65.536 0 0 0 45.056 17.749333h331.776a65.536 65.536 0 0 0 56.661334-32.085333c78.165333-134.485333 83.285333-180.224 68.266666-193.194667-32.085333-26.965333-140.970667 92.16-299.008 84.650667a327.338667 327.338667 0 0 1-139.605333-39.253334 66.218667 66.218667 0 0 0-87.722667 25.258667 100.352 100.352 0 0 0-12.970666 36.522667A114.005333 114.005333 0 0 0 290.133333 211.626667z m689.152 449.877333l-119.125333-250.197333a215.381333 215.381333 0 0 0-180.565333-122.197334h-335.189334a215.381333 215.381333 0 0 0-180.565333 122.197334l-119.125333 250.197333C-37.205333 833.536-6.826667 1024 141.994667 1024h740.010666c148.821333 0 179.2-190.464 97.28-362.496z m-273.066666-168.277333l-111.274667 133.461333a13.653333 13.653333 0 0 0 10.922667 22.186667h58.709333a13.994667 13.994667 0 0 1 12.629333 20.138666l-21.162666 39.594667a13.653333 13.653333 0 0 1-12.629334 7.509333h-66.901333a13.653333 13.653333 0 1 0 0 27.306667h83.285333a13.994667 13.994667 0 0 1 12.970667 19.114667l-17.066667 39.594666a15.018667 15.018667 0 0 1-13.312 8.192h-65.877333a13.994667 13.994667 0 0 0-14.336 13.653334v59.733333a13.994667 13.994667 0 0 1-14.336 13.653333h-62.464a13.994667 13.994667 0 0 1-14.336-13.653333v-59.733333a13.653333 13.653333 0 0 0-13.994667-13.653334h-85.674666a13.994667 13.994667 0 0 1-14.336-13.653333v-39.594667a13.994667 13.994667 0 0 1 14.336-13.653333h86.016a13.653333 13.653333 0 1 0 0-27.306667h-86.016a13.994667 13.994667 0 0 1-14.336-13.994666v-39.594667a13.994667 13.994667 0 0 1 14.336-13.653333h56.661333a13.653333 13.653333 0 0 0 11.264-22.528l-114.688-132.096a13.653333 13.653333 0 0 1 10.922667-22.528h64.512A13.994667 13.994667 0 0 1 409.6 477.866667l98.645333 107.178666a14.336 14.336 0 0 0 21.845334 0L617.130667 477.866667a15.36 15.36 0 0 1 11.264-5.12h65.194666a13.994667 13.994667 0 0 1 11.264 22.528z" p-id="1410" fill="#d81e06"></path></svg>